<?xml version="1.0" encoding="UTF-8"?>
<svg version="1.1" xmlns="http://www.w3.org/2000/svg" width="1024" height="1024">
<path d="M0 0 C0.91007813 0.41894531 1.82015625 0.83789062 2.7578125 1.26953125 C21.36329163 10.46625669 35.12709526 28.86545115 42.03515625 48.03125 C43.21610369 51.66493443 44.19456353 55.26570362 45 59 C45.8971875 59.1959375 46.794375 59.391875 47.71875 59.59375 C60.78806785 62.72606585 73.89308439 67.87181733 84 77 C84.92039062 77.80566406 85.84078125 78.61132812 86.7890625 79.44140625 C103.95980157 95.11042763 111.56722281 115.69724243 113.18359375 138.6015625 C113.82449129 161.14607613 106.2052045 182.30617408 91 199 C90.38640625 199.70640625 89.7728125 200.4128125 89.140625 201.140625 C77.40107082 213.88355988 61.46050406 219.9426012 45 224 C44.84144531 224.72703125 44.68289063 225.4540625 44.51953125 226.203125 C39.61053219 247.35792758 28.41208129 264.95541573 10 276.875 C-8.98979604 288.66336405 -29.75111821 292.43574626 -51.796875 288.28515625 C-64.75445967 285.15329191 -75.83641547 279.66834546 -86 271 C-86.80695313 270.3915625 -87.61390625 269.783125 -88.4453125 269.15625 C-101.26455952 258.33633508 -111.2342823 239.59774637 -113 223 C-113.5775 223.185625 -114.155 223.37125 -114.75 223.5625 C-117.20692525 224.04023546 -118.64397534 223.75729364 -121 223 C-121 222.34 -121 221.68 -121 221 C-122.49080078 220.86271484 -122.49080078 220.86271484 -124.01171875 220.72265625 C-128.36863744 220.09304372 -131.92376699 218.4381601 -135.8125 216.4375 C-136.51173584 216.08179932 -137.21097168 215.72609863 -137.93139648 215.35961914 C-143.8858269 212.2363778 -149.03656391 208.5482788 -154 204 C-154.63164062 203.43667969 -155.26328125 202.87335938 -155.9140625 202.29296875 C-170.57243985 188.50634511 -179.13617383 168.01197282 -180 148 C-180.0515625 147.13890625 -180.103125 146.2778125 -180.15625 145.390625 C-180.91896718 121.8735121 -172.2439901 99.56838911 -156.5 82.25 C-148.08481083 73.45230223 -135.65470814 62.72682872 -122.88671875 61.765625 C-119.15159242 61.44932539 -117.13172876 61.11627582 -114 59 C-111.31826428 54.1283596 -110.05740706 48.65335281 -108.5703125 43.328125 C-106.73871931 36.77656889 -103.92117525 31.57980687 -100 26 C-99.09314453 24.700625 -99.09314453 24.700625 -98.16796875 23.375 C-85.67108305 6.67854987 -67.04460083 -3.48266368 -46.8125 -7.3125 C-30.66848715 -9.54518263 -14.62459862 -7.22944039 0 0 Z M-51.5 87.1875 C-54.73677419 93.25645162 -54.15478009 100.40462582 -54.125 107.125 C-54.12886719 108.00542969 -54.13273437 108.88585937 -54.13671875 109.79296875 C-54.13478516 111.07494141 -54.13478516 111.07494141 -54.1328125 112.3828125 C-54.13112061 113.53354248 -54.13112061 113.53354248 -54.12939453 114.70751953 C-53.98803191 117.21203845 -53.54387244 119.55392426 -53 122 C-53.81154541 121.98952637 -54.62309082 121.97905273 -55.45922852 121.96826172 C-59.16028711 121.9265135 -62.86129601 121.90061387 -66.5625 121.875 C-68.47772461 121.84986328 -68.47772461 121.84986328 -70.43164062 121.82421875 C-79.45702718 121.6049509 -79.45702718 121.6049509 -88 124 C-93.34517349 129.50474909 -92.63048006 134.70613954 -92.5625 142 C-92.58634766 143.175625 -92.61019531 144.35125 -92.63476562 145.5625 C-92.66255227 152.30253838 -92.66255227 152.30253838 -89.84375 158.26171875 C-86.60134175 160.24368533 -84.72143757 160.6883611 -80.9375 160.8125 C-79.72707031 160.85890625 -78.51664063 160.9053125 -77.26953125 160.953125 C-75.84641677 160.97367539 -74.42321906 160.98883507 -73 161 C-72.14067871 161.00837891 -71.28135742 161.01675781 -70.39599609 161.02539062 C-64.59656219 161.07054637 -58.79931898 161.05250892 -53 161 C-53.16242188 161.68191406 -53.32484375 162.36382813 -53.4921875 163.06640625 C-55.14823074 172.63324064 -55.94818728 188.96768596 -51.64453125 197.7734375 C-49.49256258 200.68702929 -47.72287994 201.83936001 -44.1875 202.625 C-35.73485347 203.59822583 -26.45745725 204.64019562 -19 200 C-14.94100801 195.67040855 -14.85957084 191.37947054 -14.90234375 185.70703125 C-14.9037587 185.00100266 -14.90517365 184.29497406 -14.90663147 183.56755066 C-14.91222236 181.31582374 -14.92477312 179.06419679 -14.9375 176.8125 C-14.94251618 175.28450665 -14.94707888 173.75651173 -14.95117188 172.22851562 C-14.9621888 168.48563865 -14.97944713 164.74283627 -15 161 C-14.18845459 161.01571045 -13.37690918 161.0314209 -12.54077148 161.04760742 C-8.83975276 161.11022907 -5.13884583 161.14907772 -1.4375 161.1875 C-0.16068359 161.21263672 1.11613281 161.23777344 2.43164062 161.26367188 C11.72321756 161.53555045 11.72321756 161.53555045 20 158 C22.92440578 153.13393173 23.45996808 148.63292336 23.3125 143.0625 C23.30049561 142.3602832 23.28849121 141.65806641 23.27612305 140.93457031 C23.14076394 131.98644954 23.14076394 131.98644954 18.6875 124.5625 C12.47210829 120.94890017 5.35205302 121.93724136 -1.60742188 122.0390625 C-2.8980957 122.05066406 -2.8980957 122.05066406 -4.21484375 122.0625 C-4.98948975 122.07410156 -5.76413574 122.08570313 -6.56225586 122.09765625 C-9.43396152 121.98261546 -12.17588344 121.5187205 -15 121 C-14.98428955 120.18845459 -14.9685791 119.37690918 -14.95239258 118.54077148 C-14.88977093 114.83975276 -14.85092228 111.13884583 -14.8125 107.4375 C-14.78736328 106.16068359 -14.76222656 104.88386719 -14.73632812 103.56835938 C-14.59692407 94.34463419 -14.59692407 94.34463419 -18 86 C-22.04358833 83.30427445 -25.36509106 83.47631469 -30.125 83.25 C-31.35089844 83.16685547 -31.35089844 83.16685547 -32.6015625 83.08203125 C-39.21179843 82.73687653 -46.32213279 82.65686619 -51.5 87.1875 Z " fill="#2AD09E" transform="translate(257,376)"/>
<path d="M0 0 C1.53732788 0.01450195 1.53732788 0.01450195 3.10571289 0.02929688 C20.35835088 0.30369271 36.00588323 4.92145226 48.75 17.25 C51.27622473 19.90053808 52.64168993 21.39304123 53.10546875 25.0625 C53.05003906 26.114375 52.99460937 27.16625 52.9375 28.25 C52.74103219 34.63859117 52.90822099 40.92968041 53.25 47.3125 C53.34449351 49.09501282 53.43828143 50.87756324 53.53125 52.66015625 C53.57314453 53.42465088 53.61503906 54.18914551 53.65820312 54.97680664 C53.75619924 57.40351363 53.76500183 59.82157924 53.75 62.25 C52.93845459 62.26981934 52.12690918 62.28963867 51.29077148 62.31005859 C47.58937251 62.40571837 43.88850635 62.51523214 40.1875 62.625 C38.91068359 62.6559375 37.63386719 62.686875 36.31835938 62.71875 C25.92733189 62.47702375 25.92733189 62.47702375 17.10302734 66.95458984 C14.41255021 71.51898285 15.28172067 77.09026532 15.3125 82.25 C15.29251953 83.43851563 15.27253906 84.62703125 15.25195312 85.8515625 C15.25259766 86.99367188 15.25324219 88.13578125 15.25390625 89.3125 C15.25205322 90.35535156 15.2502002 91.39820313 15.24829102 92.47265625 C15.87449543 95.9391776 17.00118953 97.11245426 19.75 99.25 C22.56261858 99.9186916 22.56261858 99.9186916 25.75 99.9375 C26.96945313 99.99164062 28.18890625 100.04578125 29.4453125 100.1015625 C30.12110352 100.12379883 30.79689453 100.14603516 31.49316406 100.16894531 C34.95727549 100.29335953 38.41745837 100.48650873 41.87890625 100.66918945 C45.83534955 100.87566458 49.79259822 101.06287939 53.75 101.25 C53.77765148 104.10424688 53.79838713 106.95817247 53.8125 109.8125 C53.81797852 110.67206299 53.82345703 111.53162598 53.82910156 112.41723633 C53.83509925 117.81665843 53.53710842 123.06641581 53 128.4375 C52.49323372 134.68086052 53.26165156 138.0703311 56.75 143.25 C44.11112421 156.55407978 24.27631632 163.08910444 6.31640625 163.55078125 C-0.54335675 163.60945595 -7.39447926 163.48975511 -14.25 163.25 C-14.25 162.59 -14.25 161.93 -14.25 161.25 C-15.74080078 161.11271484 -15.74080078 161.11271484 -17.26171875 160.97265625 C-21.61863744 160.34304372 -25.17376699 158.6881601 -29.0625 156.6875 C-29.76173584 156.33179932 -30.46097168 155.97609863 -31.18139648 155.60961914 C-37.1358269 152.4863778 -42.28656391 148.7982788 -47.25 144.25 C-47.88164063 143.68667969 -48.51328125 143.12335938 -49.1640625 142.54296875 C-63.82243985 128.75634511 -72.38617383 108.26197282 -73.25 88.25 C-73.3015625 87.38890625 -73.353125 86.5278125 -73.40625 85.640625 C-74.16896718 62.1235121 -65.4939901 39.81838911 -49.75 22.5 C-36.09199666 8.22117833 -19.85674124 -0.1952962 0 0 Z " fill="#278EE9" transform="translate(150.25,435.75)"/>
<path d="M0 0 C0 0.99 0 1.98 0 3 C-0.66 3.66 -1.32 4.32 -2 5 C-1.50371094 5.3403125 -1.00742187 5.680625 -0.49609375 6.03125 C13.65836877 16.13006956 21.12552971 31.01291957 24 48 C24.5029076 53.96324798 24.90436988 60.28689035 23 66 C20.525 66.495 20.525 66.495 18 67 C18.99 67.33 19.98 67.66 21 68 C20.9512652 85.83693669 13.53681195 98.20556698 1.375 111.125 C-14.66981696 126.62759581 -35.38914376 134.14300329 -57.55859375 133.97265625 C-76.29174967 133.17342691 -92.73292742 127.16813943 -107 115 C-107.80695313 114.3915625 -108.61390625 113.783125 -109.4453125 113.15625 C-122.26455952 102.33633508 -132.2342823 83.59774637 -134 67 C-135.98 67.495 -135.98 67.495 -138 68 C-137.505 67.01 -137.505 67.01 -137 66 C-136.10414185 66.03927612 -136.10414185 66.03927612 -135.19018555 66.0793457 C-113.63627898 66.89336168 -91.6194193 63.98302873 -74.5 49.5 C-73.675 48.675 -72.85 47.85 -72 47 C-72.680625 45.96875 -73.36125 44.9375 -74.0625 43.875 C-77.16346009 37.84716881 -75.83949364 31.49695081 -75 25 C-74.67 25 -74.34 25 -74 25 C-73.94392578 26.42892578 -73.94392578 26.42892578 -73.88671875 27.88671875 C-73.82097656 29.14097656 -73.75523437 30.39523437 -73.6875 31.6875 C-73.62949219 32.92886719 -73.57148438 34.17023437 -73.51171875 35.44921875 C-72.98175003 39.12663531 -72.30488932 41.11092214 -70 44 C-63.12181392 47.5985212 -52.01489368 46.99296564 -44.65234375 45.53515625 C-41.65150669 44.45842278 -40.11940906 43.17505871 -38.33203125 40.5546875 C-36.5109942 35.69502852 -36.7153034 31.38806468 -36.875 26.25 C-37.04262667 19.07163452 -36.88814411 12.13236079 -36 5 C-29.42601726 3.55882334 -22.82542948 4.00921755 -16.14257812 4.21484375 C-10.2608601 4.30329064 -6.19979431 3.81567093 -1 1 C-0.67 0.67 -0.34 0.34 0 0 Z " fill="#1BB1D3" transform="translate(278,532)"/>
<path d="M0 0 C1.36511719 0.62841797 1.36511719 0.62841797 2.7578125 1.26953125 C21.4014713 10.48512898 35.06610731 28.87181774 42.05078125 48.0390625 C42.8668417 50.58463379 43.51082863 53.07531249 44.0625 55.6875 C44.61334959 59.0924816 44.61334959 59.0924816 47.05859375 60.20703125 C47.69925781 60.46871094 48.33992187 60.73039062 49 61 C48.44763672 60.97905273 47.89527344 60.95810547 47.32617188 60.93652344 C34.86548711 60.52873798 23.87600725 61.11306218 12 65 C10.58654297 65.45052734 10.58654297 65.45052734 9.14453125 65.91015625 C2.69299629 68.22070598 -2.58417626 71.85409355 -8 76 C-8.62390625 76.46921875 -9.2478125 76.9384375 -9.890625 77.421875 C-12.15601663 79.20339657 -13.82530741 80.65061481 -15.125 83.25 C-16 85 -16 85 -18.0625 85.8125 C-18.701875 85.874375 -19.34125 85.93625 -20 86 C-20.33 85.67 -20.66 85.34 -21 85 C-24.00708702 84.7046611 -26.98538035 84.48249735 -30 84.3125 C-30.82628906 84.25255859 -31.65257812 84.19261719 -32.50390625 84.13085938 C-38.66607207 83.77887338 -46.05245481 83.51300875 -51 87.6875 C-52.3258408 90.75350686 -52.68172519 93.68994193 -53 97 C-53.99 96.505 -53.99 96.505 -55 96 C-54.93039063 95.07058594 -54.86078125 94.14117187 -54.7890625 93.18359375 C-54.16366208 85.26190972 -54.16366208 85.26190972 -57.0625 78.1875 C-70.49121484 65.64978994 -87.18991716 61.27192016 -105 60.4375 C-105.87011719 60.39431641 -106.74023438 60.35113281 -107.63671875 60.30664062 C-109.75768219 60.20175782 -111.87882433 60.10049925 -114 60 C-109.46680888 42.74462735 -103.36722173 27.43462486 -90 15 C-89.30390625 14.32195312 -88.6078125 13.64390625 -87.890625 12.9453125 C-64.3600997 -9.31126716 -28.98909601 -14.33030384 0 0 Z " fill="#19C7C3" transform="translate(257,376)"/>
<path d="M0 0 C3.94239246 2.9989988 6.52443061 6.79641154 9.23828125 10.8671875 C9.66238281 10.50367188 10.08648438 10.14015625 10.5234375 9.765625 C11.76549609 8.70100335 13.01196064 7.64151009 14.26171875 6.5859375 C15.48821093 5.51942256 16.68774672 4.41991455 17.83984375 3.2734375 C24.64905721 -3.3009755 33.07354973 -5.3378165 42.36328125 -5.5703125 C52.27947495 -5.23213648 60.68668655 -2.77373251 68.23828125 3.8671875 C78.08369572 14.764054 78.69852097 27.15580622 78.78515625 41.2265625 C78.80459401 42.78592299 78.82514288 44.34526998 78.84674072 45.90460205 C78.88881693 49.15203277 78.92158608 52.39936778 78.94677734 55.64697266 C78.97913382 59.79503145 79.02882427 63.94264831 79.08469772 68.09045029 C79.127113 71.3024027 79.16350824 74.5143994 79.19779205 77.72644806 C79.21423467 79.25577276 79.23178921 80.78508596 79.25051117 82.31438446 C79.27515789 84.45274668 79.29246558 86.59104412 79.30761719 88.72949219 C79.32402252 90.54836945 79.32402252 90.54836945 79.34075928 92.4039917 C79.23555429 95.95934367 78.80773398 99.35868273 78.23828125 102.8671875 C78.89828125 103.1971875 79.55828125 103.5271875 80.23828125 103.8671875 C74.48828125 106.8671875 74.48828125 106.8671875 72.23828125 106.8671875 C72.23828125 106.2071875 72.23828125 105.5471875 72.23828125 104.8671875 C71.31015625 105.0528125 70.38203125 105.2384375 69.42578125 105.4296875 C66.01956312 105.93532863 62.89834957 105.73900646 59.4765625 105.39453125 C58.49341064 105.297771 57.51025879 105.20101074 56.49731445 105.10131836 C55.7518335 105.02405518 55.00635254 104.94679199 54.23828125 104.8671875 C54.2301944 104.07950989 54.22210754 103.29183228 54.21377563 102.48028564 C54.13539779 95.00808511 54.04798225 87.53606785 53.95075417 80.06409073 C53.90109407 76.22391525 53.85476509 72.38376334 53.81640625 68.54345703 C53.77916612 64.82802016 53.73270935 61.11279643 53.68021774 57.39754486 C53.66187703 55.98962952 53.64669666 54.58166886 53.63493729 53.17368317 C54.11419614 38.07529858 54.11419614 38.07529858 49.11328125 24.3046875 C44.15136076 20.09784187 39.76771661 18.5362023 33.23828125 18.8671875 C28.09412191 19.61902617 24.04963467 21.28469133 20.23828125 24.8671875 C16.07249814 30.84418066 15.11012589 36.94290573 15.12475586 44.1262207 C15.12483139 45.36712967 15.12490692 46.60803864 15.12498474 47.8865509 C15.13009053 49.23035727 15.13530651 50.57416321 15.140625 51.91796875 C15.1424916 53.30087737 15.14391436 54.68378665 15.14491272 56.06669617 C15.14871888 59.69493456 15.15853282 63.3231325 15.1696167 66.95135498 C15.1798718 70.65831963 15.1844191 74.36529086 15.18945312 78.07226562 C15.2001569 85.33725796 15.21721035 92.60221705 15.23828125 99.8671875 C15.56828125 99.8671875 15.89828125 99.8671875 16.23828125 99.8671875 C16.23828125 101.5171875 16.23828125 103.1671875 16.23828125 104.8671875 C11.10731264 105.71339436 6.18417291 106.02126898 0.98828125 105.9921875 C0.281875 105.99605469 -0.42453125 105.99992188 -1.15234375 106.00390625 C-4.29161179 105.99796067 -6.76197424 105.86710234 -9.76171875 104.8671875 C-9.76171875 104.2071875 -9.76171875 103.5471875 -9.76171875 102.8671875 C-10.42171875 102.5371875 -11.08171875 102.2071875 -11.76171875 101.8671875 C-11.10171875 101.8671875 -10.44171875 101.8671875 -9.76171875 101.8671875 C-9.87 100.24441895 -9.87 100.24441895 -9.98046875 98.58886719 C-10.68643852 87.4144731 -10.859274 76.31049088 -10.76171875 65.1171875 C-9.06078971 42.31018553 -9.06078971 42.31018553 -17.07421875 22.4921875 C-21.51637446 19.80623289 -25.54663366 18.43259708 -30.76171875 18.8671875 C-31.75171875 19.3621875 -31.75171875 19.3621875 -32.76171875 19.8671875 C-33.64859375 19.9290625 -34.53546875 19.9909375 -35.44921875 20.0546875 C-41.09200086 21.43876613 -44.55829627 24.98182561 -47.63671875 29.8046875 C-49.6436689 35.2680518 -49.88574029 40.71312773 -49.79589844 46.48925781 C-49.77968445 47.76037415 -49.76347046 49.03149048 -49.74676514 50.34112549 C-49.73615807 51.01004066 -49.72555099 51.67895584 -49.7146225 52.36814117 C-49.672253 55.20450111 -49.64903814 58.04092166 -49.62459183 60.87748337 C-49.57897311 66.1458215 -49.52545996 71.41379242 -49.43945312 76.68164062 C-49.38013746 80.35960133 -49.34511879 84.03709532 -49.32627106 87.71547699 C-49.31452374 89.11422953 -49.2937019 90.51293643 -49.26363373 91.9114151 C-49.22272276 93.8614948 -49.21554869 95.81219453 -49.20996094 97.76269531 C-49.19584167 98.87187317 -49.18172241 99.98105103 -49.16717529 101.12384033 C-49.76171875 103.8671875 -49.76171875 103.8671875 -52.29620361 105.74871826 C-53.10982361 106.11781311 -53.9234436 106.48690796 -54.76171875 106.8671875 C-54.76171875 106.2071875 -54.76171875 105.5471875 -54.76171875 104.8671875 C-55.87546875 105.0321875 -56.98921875 105.1971875 -58.13671875 105.3671875 C-71.11696706 106.96368863 -71.11696706 106.96368863 -75.76171875 103.8671875 C-76.10229492 101.98779297 -76.10229492 101.98779297 -76.0546875 99.734375 C-76.04018555 98.52587891 -76.04018555 98.52587891 -76.02539062 97.29296875 C-76.00025391 96.45121094 -75.97511719 95.60945312 -75.94921875 94.7421875 C-75.93568359 93.89269531 -75.92214844 93.04320312 -75.90820312 92.16796875 C-75.87280094 90.06743913 -75.81899276 87.96723457 -75.76171875 85.8671875 C-76.42171875 85.5371875 -77.08171875 85.2071875 -77.76171875 84.8671875 C-77.10171875 84.8671875 -76.44171875 84.8671875 -75.76171875 84.8671875 C-75.79724854 83.61736084 -75.83277832 82.36753418 -75.86938477 81.07983398 C-76.64007717 53.29727601 -76.82277443 25.64230483 -75.76171875 -2.1328125 C-72.65762054 -2.30077061 -69.55342989 -2.46695573 -66.44921875 -2.6328125 C-65.56814453 -2.68050781 -64.68707031 -2.72820312 -63.77929688 -2.77734375 C-62.50795898 -2.84501953 -62.50795898 -2.84501953 -61.2109375 -2.9140625 C-60.43065186 -2.95595703 -59.65036621 -2.99785156 -58.84643555 -3.04101562 C-56.15072643 -3.15971648 -53.45984279 -3.1328125 -50.76171875 -3.1328125 C-50.43171875 0.8271875 -50.10171875 4.7871875 -49.76171875 8.8671875 C-48.64796875 7.6503125 -47.53421875 6.4334375 -46.38671875 5.1796875 C-34.24968532 -7.00053822 -14.52420538 -9.33928949 0 0 Z " fill="#2A3B47" transform="translate(735.76171875,484.1328125)"/>
<path d="M0 0 C7.30313464 -0.07017298 14.60619408 -0.12314691 21.90960026 -0.15543652 C25.30256807 -0.17095066 28.69530168 -0.19192002 32.08813477 -0.22631836 C75.83421266 -0.63726881 75.83421266 -0.63726881 92.80859375 15.57421875 C102.26131225 26.03792319 105.45469681 38.25897573 105.2109375 52.078125 C104.67378983 62.06509281 101.6960411 69.843972 96 78 C94.9171875 79.5778125 94.9171875 79.5778125 93.8125 81.1875 C82.28652109 92.71347891 67.67725602 96.12207366 52 97 C43.75 97 35.5 97 27 97 C26.67 113.83 26.34 130.66 26 148 C17 149.125 17 149.125 13.28125 148.87890625 C12.10175781 148.80639648 12.10175781 148.80639648 10.8984375 148.73242188 C10.10695313 148.67634766 9.31546875 148.62027344 8.5 148.5625 C7.67757813 148.51029297 6.85515625 148.45808594 6.0078125 148.40429688 C4.00477101 148.27619538 2.00231129 148.13904939 0 148 C-0.86836437 144.25432678 -1.12649433 140.7912234 -1.12939453 136.94970703 C-1.13250641 135.73525909 -1.13561829 134.52081116 -1.13882446 133.26956177 C-1.13701508 131.93231173 -1.13500439 130.59506196 -1.1328125 129.2578125 C-1.13383049 127.84349543 -1.13517129 126.42917855 -1.1368103 125.01486206 C-1.13952603 121.18288677 -1.13501142 117.35095162 -1.12857056 113.51898193 C-1.12500334 111.12723672 -1.12338108 108.73549754 -1.12231445 106.34375 C-1.10275199 70.89123837 -0.6086526 35.44667475 0 0 Z M26 23 C26 40.16 26 57.32 26 75 C32.868125 75.0928125 32.868125 75.0928125 39.875 75.1875 C41.29796387 75.21481201 42.72092773 75.24212402 44.18701172 75.27026367 C54.16161636 75.33510627 63.02747843 74.48926174 71 68 C76.60064175 62.35255623 78.28845075 57.52918543 78.3125 49.625 C78.24265977 41.33995296 76.55018199 35.81832746 70.9375 29.57421875 C59.20941834 20.0451524 38.60443374 23 26 23 Z " fill="#293A45" transform="translate(423,441)"/>
<path d="M0 0 C1.21236328 -0.00193359 1.21236328 -0.00193359 2.44921875 -0.00390625 C3.28582031 -0.00003906 4.12242187 0.00382812 4.984375 0.0078125 C5.80550781 0.00394531 6.62664063 0.00007813 7.47265625 -0.00390625 C22.21948569 0.01946432 22.21948569 0.01946432 26.734375 4.1328125 C28.33750575 5.2176782 29.94173453 6.30092254 31.546875 7.3828125 C44.78941186 16.69731347 50.32513908 27.74233804 54.27807617 43.26831055 C54.90041502 47.17516004 54.83990074 50.99687354 54.796875 54.9453125 C54.79236328 55.73357422 54.78785156 56.52183594 54.78320312 57.33398438 C54.77148812 59.26696011 54.75355498 61.19989643 54.734375 63.1328125 C53.81173859 63.14311996 52.88910217 63.15342743 51.93850708 63.16404724 C43.25654025 63.26190036 34.57464347 63.36439726 25.89279366 63.47215176 C21.42904278 63.52738852 16.96528536 63.58080973 12.50146484 63.63012695 C8.19611675 63.6777594 3.89084964 63.7301018 -0.41440201 63.78575325 C-2.05946977 63.80618189 -3.70455975 63.82489412 -5.3496666 63.84188652 C-7.64839482 63.86591931 -9.94696939 63.89597528 -12.24560547 63.92749023 C-14.21084671 63.95080666 -14.21084671 63.95080666 -16.21578979 63.97459412 C-19.18254855 63.92449322 -19.18254855 63.92449322 -21.265625 65.1328125 C-17.07681613 79.49939413 -17.07681613 79.49939413 -6.265625 89.1328125 C-4.94242216 89.50432714 -3.60838455 89.8397499 -2.265625 90.1328125 C-1.275625 90.4628125 -0.285625 90.7928125 0.734375 91.1328125 C8.17316244 91.88783086 15.38703322 91.36437369 21.734375 87.1328125 C22.73280775 85.75950999 23.7286139 84.38429627 24.72265625 83.0078125 C26.99615507 80.30883847 28.15912966 79.26169842 31.63720703 78.48242188 C35.0141262 78.34643174 38.29838438 78.43335654 41.671875 78.6328125 C42.83267578 78.66890625 43.99347656 78.705 45.18945312 78.7421875 C48.04119888 78.83607213 50.88604295 78.96723031 53.734375 79.1328125 C49.09693929 93.40895332 43.2736938 101.11674154 29.671875 108.5078125 C15.99945861 114.60308197 0.86177404 115.16393751 -13.265625 110.1328125 C-25.23754914 105.21140928 -34.37224943 97.91956364 -40.265625 86.1328125 C-41.255625 86.6278125 -41.255625 86.6278125 -42.265625 87.1328125 C-42.36875 86.2046875 -42.471875 85.2765625 -42.578125 84.3203125 C-43.01750024 81.12456599 -43.83194122 78.1832139 -44.77734375 75.1015625 C-46.41367957 69.15991113 -46.80463564 63.58798791 -46.765625 57.4453125 C-46.76062988 56.40165527 -46.75563477 55.35799805 -46.75048828 54.28271484 C-46.3683938 37.17805772 -40.27530259 23.21543889 -27.84765625 11.328125 C-20.36788911 4.96862555 -9.95194505 0.01550147 0 0 Z M-13.23046875 27.19140625 C-18.03730298 33.02055287 -20.265625 37.46066791 -20.265625 45.1328125 C-4.095625 45.1328125 12.074375 45.1328125 28.734375 45.1328125 C27.75002573 37.25801834 26.84278003 31.53114443 20.734375 26.2578125 C10.64607527 19.11193352 -4.18964093 17.71920693 -13.23046875 27.19140625 Z " fill="#2A3A46" transform="translate(874.265625,478.8671875)"/>
<path d="M0 0 C0 8.58 0 17.16 0 26 C-2.124375 25.95875 -4.24875 25.9175 -6.4375 25.875 C-15.31252288 25.91075034 -22.24045991 26.36947881 -29.2734375 32.18359375 C-38.01443061 41.37943492 -36.16174358 56.27494098 -35.87890625 67.984375 C-35.85529526 69.16598206 -35.83168427 70.34758911 -35.80735779 71.56500244 C-35.73153763 75.29348283 -35.64716805 79.02171112 -35.5625 82.75 C-35.50919733 85.29686317 -35.45645769 87.84373819 -35.40429688 90.390625 C-35.27708017 96.59395391 -35.13827282 102.79686856 -35 109 C-43.58 109 -52.16 109 -61 109 C-61.64809218 101.87098598 -62.1433223 95.05066732 -62.11352539 87.9387207 C-62.11367142 87.00077164 -62.11381744 86.06282257 -62.1139679 85.09645081 C-62.11327905 82.03953625 -62.10553552 78.98268497 -62.09765625 75.92578125 C-62.09578841 73.78915948 -62.09436624 71.65253727 -62.09336853 69.51591492 C-62.08957218 63.92484327 -62.07976686 58.33379809 -62.06866455 52.74273682 C-62.05838811 47.02445839 -62.05385762 41.30617564 -62.04882812 35.58789062 C-62.0381417 24.39191553 -62.02110035 13.19595998 -62 2 C-58.02119772 1.80414647 -54.04194844 1.6197133 -50.0625 1.4375 C-48.35803711 1.35338867 -48.35803711 1.35338867 -46.61914062 1.26757812 C-45.53955078 1.21923828 -44.45996094 1.17089844 -43.34765625 1.12109375 C-42.34742432 1.0739624 -41.34719238 1.02683105 -40.31665039 0.97827148 C-38 1 -38 1 -37 2 C-36.76636119 3.84891946 -36.58696365 5.70488031 -36.4375 7.5625 C-36.31181641 9.08037109 -36.31181641 9.08037109 -36.18359375 10.62890625 C-36.12300781 11.41136719 -36.06242188 12.19382812 -36 13 C-35.34 13 -34.68 13 -34 13 C-33.7628125 12.41734375 -33.525625 11.8346875 -33.28125 11.234375 C-31.7273194 8.52447163 -29.98070569 7.13469198 -27.5 5.25 C-26.7059375 4.63640625 -25.911875 4.0228125 -25.09375 3.390625 C-23 2 -23 2 -21 2 C-20.67 1.34 -20.34 0.68 -20 0 C-5.33333333 -2.66666667 -5.33333333 -2.66666667 0 0 Z " fill="#2A3B47" transform="translate(603,480)"/>
<path d="M0 0 C0.6902124 0.08564209 1.3804248 0.17128418 2.09155273 0.25952148 C3.591378 0.39814397 5.09138854 0.5347726 6.59155273 0.66967773 C7.38432617 0.74847168 8.17709961 0.82726562 8.99389648 0.90844727 C13.51849531 1.31193133 18.05442141 1.49132411 22.59155273 1.69702148 C24.31163309 1.78108028 26.03168786 1.8656655 27.75170898 1.95092773 C29.62149414 2.04180664 29.62149414 2.04180664 31.52905273 2.13452148 C31.55670421 4.98876837 31.57743987 7.84269396 31.59155273 10.69702148 C31.59703125 11.55658447 31.60250977 12.41614746 31.6081543 13.30175781 C31.61415199 18.70117992 31.31616115 23.9509373 30.77905273 29.32202148 C30.27228646 35.56538201 31.04070429 38.95485259 34.52905273 44.13452148 C22.67476862 56.61271529 3.48359119 63.67260168 -13.50219727 64.47045898 C-19.56160248 64.58576184 -25.54434237 64.55225834 -31.47094727 63.13452148 C-29.98594727 62.63952148 -29.98594727 62.63952148 -28.47094727 62.13452148 C-28.50575195 60.82999023 -28.54055664 59.52545898 -28.57641602 58.18139648 C-28.9715075 37.45795487 -23.96955548 21.41225491 -10.47094727 5.13452148 C-9.72200195 4.20510742 -8.97305664 3.27569336 -8.20141602 2.31811523 C-5.2114686 -0.07298721 -3.76318705 -0.32554814 0 0 Z " fill="#1C70D2" transform="translate(172.470947265625,534.865478515625)"/>
<path d="M0 0 C0 0.33 0 0.66 0 1 C-1.65 1 -3.3 1 -5 1 C-4.94779297 2.70542969 -4.94779297 2.70542969 -4.89453125 4.4453125 C-4.47625027 23.95801384 -8.32086334 40.67723768 -21 56 C-21.94875 56.9075 -22.8975 57.815 -23.875 58.75 C-26.67677524 61.71658555 -27.14759077 64.04792083 -28 68 C-29.39973958 66.73046875 -30.79947917 65.4609375 -32.19921875 64.19140625 C-37.60566813 60.6144712 -45.31629917 61.94743426 -51.51953125 62.0390625 C-56.47163416 62.08374313 -61.11875822 61.85122472 -66 61 C-65.98428955 60.16339844 -65.9685791 59.32679688 -65.95239258 58.46484375 C-65.90090995 55.3263584 -65.86347892 52.18809012 -65.83520508 49.04931641 C-65.81290592 47.03663752 -65.77476347 45.02415416 -65.73632812 43.01171875 C-65.68305237 35.94380209 -65.89071879 30.39810097 -69 24 C-68.01 24 -67.02 24 -66 24 C-65.77054688 23.26652344 -65.54109375 22.53304688 -65.3046875 21.77734375 C-60.77426684 12.13324467 -47.98281258 6.78859074 -38.59375 3.0390625 C-25.68280938 -1.55250441 -13.4829609 -1.46043677 0 0 Z " fill="#11BAA2" transform="translate(307,437)"/>
<path d="M0 0 C18.33136002 0.03125885 34.85292426 4.01036383 48.47827148 17.19140625 C51.00449622 19.84194433 52.36996142 21.33444748 52.83374023 25.00390625 C52.77831055 26.05578125 52.72288086 27.10765625 52.66577148 28.19140625 C52.46930368 34.57999742 52.63649248 40.87108666 52.97827148 47.25390625 C53.07276499 49.03641907 53.16655292 50.81896949 53.25952148 52.6015625 C53.30141602 53.36605713 53.34331055 54.13055176 53.38647461 54.91821289 C53.48447072 57.34491988 53.49327331 59.76298549 53.47827148 62.19140625 C48.83350004 62.21612664 44.18876691 62.23427593 39.54394531 62.24633789 C37.9638604 62.25136639 36.38378014 62.25819003 34.80371094 62.2668457 C32.53245902 62.27897617 30.26126864 62.28464938 27.98999023 62.2890625 C26.93046394 62.29680443 26.93046394 62.29680443 25.84953308 62.30470276 C22.77572757 62.30505428 20.41922729 62.17172485 17.47827148 61.19140625 C16.81827148 62.18140625 16.15827148 63.17140625 15.47827148 64.19140625 C11.32216963 62.68352349 9.39858324 59.73342858 7.04077148 56.19140625 C6.44872925 55.31029175 6.44872925 55.31029175 5.84472656 54.41137695 C-5.04131377 37.95354721 -8.36962308 20.80967449 -6.52172852 1.19140625 C-4.74302353 -0.58729874 -2.36957523 0.02610802 0 0 Z " fill="#0F93C8" transform="translate(150.521728515625,435.80859375)"/>
<path d="M0 0 C0 0.99 0 1.98 0 3 C-0.66 3.66 -1.32 4.32 -2 5 C-1.50371094 5.3403125 -1.00742187 5.680625 -0.49609375 6.03125 C13.65836877 16.13006956 21.12552971 31.01291957 24 48 C24.5029076 53.96324798 24.90436988 60.28689035 23 66 C7.49748133 69.63567511 -9.16580958 65.92180301 -22.625 57.8125 C-27.42952549 54.64165104 -31.32590738 50.94354698 -35.22265625 46.72265625 C-36.82682659 44.7680089 -36.82682659 44.7680089 -39 45 C-38.47731534 42.23723823 -37.89130413 39.6739124 -37 37 C-36.92976753 35.41678465 -36.9156745 33.83071581 -36.9375 32.24609375 C-36.94523438 31.30830078 -36.95296875 30.37050781 -36.9609375 29.40429688 C-36.98661921 27.45377127 -37.01265064 25.50325023 -37.0390625 23.55273438 C-37.09015271 17.29844161 -36.76071596 11.20883465 -36 5 C-29.42601726 3.55882334 -22.82542948 4.00921755 -16.14257812 4.21484375 C-10.2608601 4.30329064 -6.19979431 3.81567093 -1 1 C-0.67 0.67 -0.34 0.34 0 0 Z " fill="#0EABA5" transform="translate(278,532)"/>
<path d="M0 0 C7.92 0 15.84 0 24 0 C24.33 35.31 24.66 70.62 25 107 C16.95026784 110.21989286 8.46544763 109.43752884 0 108 C-1.54593569 106.45406431 -1.12594233 105.01509926 -1.12698364 102.86230469 C-1.12980347 101.97047485 -1.13262329 101.07864502 -1.13552856 100.15979004 C-1.13350433 99.17377808 -1.1314801 98.18776611 -1.12939453 97.171875 C-1.13114685 96.13945679 -1.13289917 95.10703857 -1.13470459 94.04333496 C-1.13912533 90.61220648 -1.13618433 87.18112906 -1.1328125 83.75 C-1.13348548 81.37727854 -1.13445545 79.00455716 -1.13571167 76.63183594 C-1.13718894 71.65168605 -1.13503314 66.67155406 -1.13037109 61.69140625 C-1.1246738 55.29171321 -1.12795264 48.8920621 -1.13394356 42.49237061 C-1.13754837 37.59065431 -1.13641095 32.68894804 -1.13381577 27.78723145 C-1.13314628 25.42679845 -1.13397568 23.06636456 -1.13629532 20.70593262 C-1.13882054 17.41330537 -1.13498309 14.12074708 -1.12939453 10.828125 C-1.13141876 9.84211304 -1.13344299 8.85610107 -1.13552856 7.84020996 C-1.13270874 6.94838013 -1.12988892 6.05655029 -1.12698364 5.13769531 C-1.12660662 4.35823547 -1.12622959 3.57877563 -1.12584114 2.7756958 C-1 1 -1 1 0 0 Z " fill="#2B3D4A" transform="translate(617,481)"/>
<path d="M0 0 C3.87728423 2.58485615 6.94227485 5.24830814 8.44921875 9.796875 C9.36342946 14.86926991 8.3490359 18.32672873 5.8125 22.875 C2.9027135 26.34797098 0.06093913 28.54614666 -4.484375 29.2109375 C-10.32914262 29.30400705 -15.72748388 29.02632765 -20.1875 24.875 C-22.72909618 20.30819544 -23.68848824 15.7043193 -22.625 10.5625 C-20.70658631 5.64135184 -18.85106226 2.97143876 -14.4375 0.0625 C-9.24917195 -1.83323525 -5.20696306 -1.83775167 0 0 Z " fill="#2C3D49" transform="translate(636.1875,439.125)"/>
<path d="M0 0 C7.92 0 15.84 0 24 0 C24.33 35.31 24.66 70.62 25 107 C16.95026784 110.21989286 8.46544763 109.43752884 0 108 C-1.54593569 106.45406431 -1.12594233 105.01509926 -1.12698364 102.86230469 C-1.12980347 101.97047485 -1.13262329 101.07864502 -1.13552856 100.15979004 C-1.13350433 99.17377808 -1.1314801 98.18776611 -1.12939453 97.171875 C-1.13114685 96.13945679 -1.13289917 95.10703857 -1.13470459 94.04333496 C-1.13912533 90.61220648 -1.13618433 87.18112906 -1.1328125 83.75 C-1.13348548 81.37727854 -1.13445545 79.00455716 -1.13571167 76.63183594 C-1.13718894 71.65168605 -1.13503314 66.67155406 -1.13037109 61.69140625 C-1.1246738 55.29171321 -1.12795264 48.8920621 -1.13394356 42.49237061 C-1.13754837 37.59065431 -1.13641095 32.68894804 -1.13381577 27.78723145 C-1.13314628 25.42679845 -1.13397568 23.06636456 -1.13629532 20.70593262 C-1.13882054 17.41330537 -1.13498309 14.12074708 -1.12939453 10.828125 C-1.13141876 9.84211304 -1.13344299 8.85610107 -1.13552856 7.84020996 C-1.13270874 6.94838013 -1.12988892 6.05655029 -1.12698364 5.13769531 C-1.12660662 4.35823547 -1.12622959 3.57877563 -1.12584114 2.7756958 C-1 1 -1 1 0 0 Z M1 3 C1.33 36.66 1.66 70.32 2 105 C8.6 105 15.2 105 22 105 C22 71.34 22 37.68 22 3 C15.07 3 8.14 3 1 3 Z " fill="#20292C" transform="translate(617,481)"/>
<path d="M0 0 C0.66 0 1.32 0 2 0 C5.7646213 9.98970187 6.61703505 19.00129208 6.64453125 29.5546875 C6.66210843 31.11119347 6.68123794 32.66768259 6.701828 34.22415161 C6.74081525 37.45967136 6.76752365 40.69495216 6.78393555 43.93066406 C6.80499763 48.06302487 6.84763386 52.19479253 6.89822865 56.32688713 C6.94597543 60.29858851 6.9832051 64.27036795 7.01953125 68.2421875 C7.0310469 69.36392679 7.0310469 69.36392679 7.04279518 70.50832748 C7.06269778 72.63690698 7.07513415 74.76539686 7.08520508 76.89404297 C7.09312576 78.1005954 7.10104645 79.30714783 7.10920715 80.55026245 C6.99686316 84.09908932 6.56699193 87.49737887 6 91 C6.66 91.33 7.32 91.66 8 92 C2.25 95 2.25 95 0 95 C0 94.34 0 93.68 0 93 C-0.928125 93.185625 -1.85625 93.37125 -2.8125 93.5625 C-6.21871813 94.06814113 -9.33993168 93.87181896 -12.76171875 93.52734375 C-13.74487061 93.4305835 -14.72802246 93.33382324 -15.7409668 93.23413086 C-16.48644775 93.15686768 -17.23192871 93.07960449 -18 93 C-18.00808685 92.21232239 -18.01617371 91.42464478 -18.02450562 90.61309814 C-18.10288346 83.14089761 -18.190299 75.66888035 -18.28752708 68.19690323 C-18.33718718 64.35672775 -18.38351616 60.51657584 -18.421875 56.67626953 C-18.45911513 52.96083266 -18.5055719 49.24560893 -18.55806351 45.53035736 C-18.57640422 44.12244202 -18.59158459 42.71448136 -18.60334396 41.30649567 C-18.67793218 32.67382756 -19.28666994 24.46531082 -21 16 C-21.18638031 15.06464417 -21.37276062 14.12928833 -21.56478882 13.16558838 C-21.70840851 12.45094421 -21.8520282 11.73630005 -22 11 C-17.82230634 14.34215493 -16.74302513 17.87810055 -16 23 C-15.73458564 28.14749903 -15.7665883 33.28560187 -15.8046875 38.4375 C-15.80842353 39.92822072 -15.81126771 41.41894391 -15.81326294 42.90966797 C-15.82085297 46.80917288 -15.84046096 50.70852581 -15.8626709 54.60797119 C-15.88322978 58.59669947 -15.89228601 62.58545261 -15.90234375 66.57421875 C-15.92371185 74.38288939 -15.95885548 82.19140393 -16 90 C-9.4 90 -2.8 90 4 90 C3.93689725 80.13296047 3.86133091 70.26622697 3.76428509 60.39946175 C3.71970328 55.81710724 3.68042082 51.23483914 3.65356445 46.65234375 C3.62740919 42.22364372 3.58692187 37.79527844 3.53681374 33.36678696 C3.52022722 31.68369612 3.50866209 30.00054749 3.50238609 28.31738663 C3.4916376 16.38595031 3.4916376 16.38595031 0.63825989 4.85397339 C0 3 0 3 0 0 Z " fill="#0C151B" transform="translate(808,496)"/>
<path d="M0 0 C0.33 0 0.66 0 1 0 C1 32.34 1 64.68 1 98 C7.6 98 14.2 98 21 98 C21 98.33 21 98.66 21 99 C17.72922836 99.16789217 14.45837336 99.33410238 11.1875 99.5 C10.25873047 99.54769531 9.32996094 99.59539062 8.37304688 99.64453125 C7.0340332 99.71220703 7.0340332 99.71220703 5.66796875 99.78125 C4.84578857 99.82314453 4.0236084 99.86503906 3.17651367 99.90820312 C1.45227071 99.98092498 -0.27422415 100 -2 100 C-2 76.57 -2 53.14 -2 29 C-1.67 29 -1.34 29 -1 29 C-0.67 19.43 -0.34 9.86 0 0 Z " fill="#263239" transform="translate(618,488)"/>
<path d="M0 0 C0.99 0.99 0.99 0.99 2 2 C0.72125 1.84144531 -0.5575 1.68289063 -1.875 1.51953125 C-23.94130885 -0.90690076 -41.64588256 2.39311713 -61 13 C-62.32949475 13.6742892 -63.66064936 14.34550624 -65 15 C-65 15.66 -65 16.32 -65 17 C-66.99284138 18.3440093 -68.99419671 19.67541292 -71 21 C-74.84136519 24.44611473 -74.84136519 24.44611473 -77 29 C-78.4375 30.6875 -78.4375 30.6875 -80 32 C-80.66 32 -81.32 32 -82 32 C-82.268125 33.134375 -82.53625 34.26875 -82.8125 35.4375 C-83.204375 36.613125 -83.59625 37.78875 -84 39 C-85.485 39.495 -85.485 39.495 -87 40 C-87.95830831 42.160312 -87.95830831 42.160312 -88.5625 44.75 C-89.52702916 48.28827279 -90.63808778 51.59521946 -92 55 C-93.04026656 58.32164323 -94.02665911 61.65819629 -95 65 C-95.99 65 -96.98 65 -98 65 C-90.91438778 41.83912881 -90.91438778 41.83912881 -84 32 C-83.39542969 31.13375 -82.79085937 30.2675 -82.16796875 29.375 C-69.67108305 12.67854987 -51.04460083 2.51733632 -30.8125 -1.3125 C-20.53423726 -2.75530426 -10.11616352 -2.44599775 0 0 Z " fill="#20BCB2" transform="translate(241,370)"/>
<path d="M0 0 C0.66 0.33 1.32 0.66 2 1 C2.04628627 13.46501753 2.08185032 25.93001471 2.10362434 38.39510059 C2.11407337 44.18278343 2.12825299 49.97040758 2.15087891 55.75805664 C2.17256737 61.34067552 2.1845602 66.92323786 2.18975449 72.50589561 C2.19345743 74.63860655 2.2006881 76.77131429 2.21146011 78.90400124 C2.22592186 81.88504412 2.22798017 84.86585166 2.22705078 87.84692383 C2.23783661 89.17725143 2.23783661 89.17725143 2.24884033 90.53445435 C2.246091 91.34633713 2.24334167 92.15821991 2.24050903 92.9947052 C2.24235262 93.69987683 2.24419621 94.40504847 2.24609566 95.13158894 C2 97 2 97 0 100 C-0.89361316 94.65248559 -1.14308542 89.51484826 -1.12939453 84.09887695 C-1.13114685 83.23621216 -1.13289917 82.37354736 -1.13470459 81.48474121 C-1.13908177 78.65256702 -1.13620051 75.820456 -1.1328125 72.98828125 C-1.13348654 71.01246631 -1.13445741 69.03665145 -1.13571167 67.06083679 C-1.13718288 62.92946581 -1.13505193 58.7981165 -1.13037109 54.66674805 C-1.12466293 49.37058705 -1.12796334 44.07447661 -1.13394356 38.77831745 C-1.13755516 34.70258706 -1.13640801 30.62686868 -1.13381577 26.55113792 C-1.13314874 24.59789206 -1.13396709 22.64464511 -1.13629532 20.69140053 C-1.13883286 17.96521736 -1.13496613 15.23911649 -1.12939453 12.51293945 C-1.13141876 11.70610214 -1.13344299 10.89926483 -1.13552856 10.06797791 C-1.1221628 6.5403231 -0.94800701 3.39409426 0 0 Z " fill="#10191D" transform="translate(542,483)"/>
<path d="M0 0 C0.66 0 1.32 0 2 0 C5.7646213 9.98970187 6.61703505 19.00129208 6.64453125 29.5546875 C6.66210843 31.11119347 6.68123794 32.66768259 6.701828 34.22415161 C6.74081525 37.45967136 6.76752365 40.69495216 6.78393555 43.93066406 C6.80499763 48.06302487 6.84763386 52.19479253 6.89822865 56.32688713 C6.94597543 60.29858851 6.9832051 64.27036795 7.01953125 68.2421875 C7.0310469 69.36392679 7.0310469 69.36392679 7.04279518 70.50832748 C7.06269778 72.63690698 7.07513415 74.76539686 7.08520508 76.89404297 C7.09312576 78.1005954 7.10104645 79.30714783 7.10920715 80.55026245 C6.99686316 84.09908932 6.56699193 87.49737887 6 91 C6.66 91.33 7.32 91.66 8 92 C5.525 92.495 5.525 92.495 3 93 C3 92.67 3 92.34 3 92 C-3.27 91.67 -9.54 91.34 -16 91 C-16 90.67 -16 90.34 -16 90 C-9.4 90 -2.8 90 4 90 C3.93689725 80.13296047 3.86133091 70.26622697 3.76428509 60.39946175 C3.71970328 55.81710724 3.68042082 51.23483914 3.65356445 46.65234375 C3.62740919 42.22364372 3.58692187 37.79527844 3.53681374 33.36678696 C3.52022722 31.68369612 3.50866209 30.00054749 3.50238609 28.31738663 C3.4916376 16.38595031 3.4916376 16.38595031 0.63825989 4.85397339 C0 3 0 3 0 0 Z " fill="#10181E" transform="translate(808,496)"/>
<path d="M0 0 C3.63 0.33 7.26 0.66 11 1 C10.30777344 1.50660156 9.61554688 2.01320313 8.90234375 2.53515625 C6.58599202 4.9480694 6.58599202 4.9480694 7.37890625 8.49609375 C7.74926667 9.81691318 8.14483738 11.1308674 8.5625 12.4375 C8.74619141 13.09298828 8.92988281 13.74847656 9.11914062 14.42382812 C10.27182607 18.34610591 11.8886579 21.53005515 14 25 C14 25.99 14 26.98 14 28 C14.66 28 15.32 28 16 28 C17.19140625 29.6171875 17.19140625 29.6171875 18.5625 31.875 C25.40391527 42.36736284 33.59073372 49.33935666 44 56 C43.01 56.33 42.02 56.66 41 57 C38.73046875 55.7421875 38.73046875 55.7421875 36.1875 53.875 C35.35605469 53.27429688 34.52460938 52.67359375 33.66796875 52.0546875 C18.89363678 40.67650504 6.16087273 22.78923006 3.3125 3.9375 C3.209375 2.968125 3.10625 1.99875 3 1 C1.68 1.33 0.36 1.66 -1 2 C-0.67 1.34 -0.34 0.68 0 0 Z " fill="#1E9FC4" transform="translate(141,598)"/>
<path d="M0 0 C0.33 0 0.66 0 1 0 C1 15.18 1 30.36 1 46 C7.93 46 14.86 46 22 46 C22 46.66 22 47.32 22 48 C18.20839703 48.05786668 14.41690689 48.09355054 10.625 48.125 C9.54476562 48.14175781 8.46453125 48.15851562 7.3515625 48.17578125 C6.3203125 48.18222656 5.2890625 48.18867187 4.2265625 48.1953125 C2.79691162 48.21102295 2.79691162 48.21102295 1.33837891 48.22705078 C-1 48 -1 48 -3 46 C-2.34 46 -1.68 46 -1 46 C-1.08378906 44.96746094 -1.16757812 43.93492187 -1.25390625 42.87109375 C-1.91466111 33.77146496 -2.0310041 24.80479786 -1.625 15.6875 C-1.58189697 14.70386475 -1.53879395 13.72022949 -1.49438477 12.70678711 C-1.27434778 8.36209102 -0.92776922 4.25930413 0 0 Z " fill="#0D151A" transform="translate(727,540)"/>
<path d="M0 0 C0.33 0 0.66 0 1 0 C1.33 17.82 1.66 35.64 2 54 C-6.58 54 -15.16 54 -24 54 C-24 52.35 -24 50.7 -24 49 C-23.34 49 -22.68 49 -22 49 C-22 49.66 -22 50.32 -22 51 C-14.74 51 -7.48 51 0 51 C0 34.17 0 17.34 0 0 Z " fill="#424B4B" transform="translate(566,535)"/>
<path d="M0 0 C1.62490954 -0.02698189 3.24994633 -0.04638757 4.875 -0.0625 C5.77992188 -0.07410156 6.68484375 -0.08570313 7.6171875 -0.09765625 C10 0 10 0 12 1 C12 9.58 12 18.16 12 27 C6.06 26.67 0.12 26.34 -6 26 C-1.25368713 22.83579142 3.36756877 23.87887245 9 24 C9 17.07 9 10.14 9 3 C6.03 3 3.06 3 0 3 C0 2.01 0 1.02 0 0 Z " fill="#252F32" transform="translate(591,479)"/>
<path d="M0 0 C0.33 0 0.66 0 1 0 C1.01213028 1.09874199 1.01213028 1.09874199 1.02450562 2.21968079 C1.10242727 9.12076323 1.18971061 16.0216705 1.28752708 22.92249775 C1.3374857 26.47034604 1.38381555 30.01816463 1.421875 33.56616211 C1.46578269 37.64456014 1.5254323 41.72259545 1.5859375 45.80078125 C1.59748871 47.07585037 1.60903992 48.35091949 1.62094116 49.66462708 C1.64081085 50.84562485 1.66068054 52.02662262 1.68115234 53.2434082 C1.69447601 54.28487503 1.70779968 55.32634186 1.7215271 56.39936829 C1.82217776 59.2348051 1.82217776 59.2348051 4 62 C3.875 64.0625 3.875 64.0625 3 66 C0.9375 67.25 0.9375 67.25 -1 68 C-1 67.34 -1 66.68 -1 66 C-2.11375 66.165 -3.2275 66.33 -4.375 66.5 C-9.19912604 67.09440124 -14.15567333 67.53125516 -19 67 C-19.66 66.34 -20.32 65.68 -21 65 C-20.34 64.34 -19.68 63.68 -19 63 C-12.73 63 -6.46 63 0 63 C0 42.21 0 21.42 0 0 Z " fill="#30424E" transform="translate(682,523)"/>
<path d="M0 0 C3.71980755 0.21256043 4.97426295 0.97601775 7.75 3.5625 C10.45392369 7.13920918 11.30181452 10.54176838 11 15 C9.29230584 20.3927184 7.09098327 24.1744086 2.16796875 27.08203125 C-2.44721399 29.03620773 -7.76701335 28.82570246 -12.4296875 27.1015625 C-14.32916553 26.14844363 -16.17171302 25.08342932 -18 24 C-17.67 22.68 -17.34 21.36 -17 20 C-16.236875 20.639375 -15.47375 21.27875 -14.6875 21.9375 C-10.38641052 25.23833611 -6.27868829 25.56878116 -1 25 C3.0226217 23.43564712 4.59149109 22.61276337 7 19 C7.67680594 13.91608561 7.87403153 9.44667287 5.1875 5 C4.465625 4.34 3.74375 3.68 3 3 C2.4225 2.401875 1.845 1.80375 1.25 1.1875 C0.8375 0.795625 0.425 0.40375 0 0 Z " fill="#293031" transform="translate(634,440)"/>
<path d="M0 0 C3.1489715 1.36911804 5.0478487 2.8752136 7.25 5.5 C8.03117187 6.41265625 8.03117187 6.41265625 8.828125 7.34375 C10 9 10 9 10 11 C11.32 11.66 12.64 12.32 14 13 C14 13.66 14 14.32 14 15 C14.57621094 15.27199219 15.15242188 15.54398438 15.74609375 15.82421875 C18.00492253 17.0025679 19.98501721 18.34078789 22.0625 19.8125 C29.30911272 24.68336983 36.30309744 27.93507316 45 29 C47.4375 30.5625 47.4375 30.5625 49 32 C47.68 32.66 46.36 33.32 45 34 C45 33.34 45 32.68 45 32 C44.00613281 31.90847656 43.01226562 31.81695313 41.98828125 31.72265625 C37.63136256 31.09304372 34.07623301 29.4381601 30.1875 27.4375 C29.48826416 27.08179932 28.78902832 26.72609863 28.06860352 26.35961914 C22.11444289 23.23651931 16.96246543 19.54892665 12 15 C11.01773438 14.12021484 11.01773438 14.12021484 10.015625 13.22265625 C5.83212964 9.28051639 2.81685607 4.99764787 0 0 Z " fill="#2B86DA" transform="translate(91,565)"/>
<path d="M0 0 C1.80791016 0.07250977 1.80791016 0.07250977 3.65234375 0.14648438 C5.53373047 0.2305957 5.53373047 0.2305957 7.453125 0.31640625 C9.35771484 0.3947168 9.35771484 0.3947168 11.30078125 0.47460938 C14.43514907 0.60422609 17.56919374 0.73919096 20.703125 0.87890625 C20.703125 1.20890625 20.703125 1.53890625 20.703125 1.87890625 C14.13667827 2.72726712 7.75630577 3.00400124 1.140625 2.94140625 C-3.5309375 2.91046875 -3.5309375 2.91046875 -8.296875 2.87890625 C-8.296875 12.11890625 -8.296875 21.35890625 -8.296875 30.87890625 C-11.29631212 27.87946913 -10.8095167 24.41565807 -10.984375 20.37890625 C-11.04516235 19.16291748 -11.04516235 19.16291748 -11.10717773 17.92236328 C-11.35302951 12.13645859 -11.13026396 6.62003019 -10.296875 0.87890625 C-6.78496017 -0.23070939 -3.66353272 -0.15552733 0 0 Z " fill="#0B9E9A" transform="translate(252.296875,536.12109375)"/>
<path d="M0 0 C0.33 0 0.66 0 1 0 C1.33 19.47 1.66 38.94 2 59 C2.33 59 2.66 59 3 59 C3 60.65 3 62.3 3 64 C-2.12187612 64.83800329 -7.06321552 65.18266158 -12.25 65.1875 C-13.30960938 65.20586914 -13.30960938 65.20586914 -14.390625 65.22460938 C-18.14921497 65.23528719 -19.79359134 65.13760577 -23 63 C-15.41 63 -7.82 63 0 63 C-0.33 62.34 -0.66 61.68 -1 61 C-1.06249055 59.05877201 -1.05768964 57.11524046 -1.02172852 55.17333984 C-1.00163223 53.95222504 -0.98153595 52.73111023 -0.96083069 51.47299194 C-0.93363242 50.13563822 -0.90632161 48.79828679 -0.87890625 47.4609375 C-0.85460701 46.09616882 -0.83076335 44.73139196 -0.80735779 43.36660767 C-0.74449724 39.77277311 -0.67543627 36.17908322 -0.60510254 32.58538818 C-0.53443683 28.9189717 -0.46960933 25.25245256 -0.40429688 21.5859375 C-0.27525916 14.39051147 -0.13967382 7.19522825 0 0 Z " fill="#384041" transform="translate(749,525)"/>
<path d="M0 0 C2.29755922 3.44633882 2.23643976 4.71068391 2.1953125 8.76171875 C2.19031738 9.76936279 2.18532227 10.77700684 2.18017578 11.81518555 C2.16196777 13.09304932 2.14375977 14.37091309 2.125 15.6875 C2.08375 19.750625 2.0425 23.81375 2 28 C15.86 28.495 15.86 28.495 30 29 C30 29.33 30 29.66 30 30 C26.1463114 30.19832847 22.29204822 30.38171343 18.4375 30.5625 C17.35146484 30.61857422 16.26542969 30.67464844 15.14648438 30.73242188 C14.08623047 30.78076172 13.02597656 30.82910156 11.93359375 30.87890625 C10.96478271 30.9260376 9.99597168 30.97316895 8.99780273 31.02172852 C6 31 6 31 -1 30 C-0.67 20.1 -0.34 10.2 0 0 Z " fill="#0CAC98" transform="translate(242,468)"/>
<path d="M0 0 C0.66 0 1.32 0 2 0 C2 8.58 2 17.16 2 26 C8.6 26 15.2 26 22 26 C22 26.33 22 26.66 22 27 C18.72922836 27.16789217 15.45837336 27.33410238 12.1875 27.5 C11.25873047 27.54769531 10.32996094 27.59539063 9.37304688 27.64453125 C8.48037109 27.68964844 7.58769531 27.73476563 6.66796875 27.78125 C5.84578857 27.82314453 5.0236084 27.86503906 4.17651367 27.90820312 C2.45227071 27.98092498 0.72577585 28 -1 28 C-1.02727678 25.02076997 -1.04697128 22.04179621 -1.0625 19.0625 C-1.07087891 18.23169922 -1.07925781 17.40089844 -1.08789062 16.54492188 C-1.10966956 10.94773559 -0.71159268 5.55266418 0 0 Z " fill="#1F292F" transform="translate(617,560)"/>
<path d="M0 0 C1.34888732 0.00015905 2.69778075 0.00584927 4.04663086 0.01586914 C5.10991859 0.01799156 5.10991859 0.01799156 6.19468689 0.02015686 C8.46699173 0.02577096 10.73919936 0.03832576 13.01147461 0.05102539 C14.54858257 0.05603858 16.08569206 0.0606018 17.62280273 0.06469727 C21.39823103 0.07574497 25.17358632 0.09301898 28.94897461 0.11352539 C27.94897461 2.11352539 27.94897461 2.11352539 26.24609375 2.72802734 C21.34734567 3.55012568 16.34038424 3.2982376 11.38647461 3.30102539 C10.23727539 3.31327148 9.08807617 3.32551758 7.90405273 3.33813477 C6.80383789 3.34006836 5.70362305 3.34200195 4.57006836 3.34399414 C3.56387451 3.34810303 2.55768066 3.35221191 1.52099609 3.35644531 C-1.05102539 3.11352539 -1.05102539 3.11352539 -4.05102539 1.11352539 C-3.05102539 0.11352539 -3.05102539 0.11352539 0 0 Z " fill="#293336" transform="translate(451.051025390625,534.886474609375)"/>
<path d="M0 0 C0.33 0 0.66 0 1 0 C1 6.6 1 13.2 1 20 C7.6 20 14.2 20 21 20 C20.34 21.32 19.68 22.64 19 24 C18.34 24 17.68 24 17 24 C17 23.34 17 22.68 17 22 C16.071875 22.185625 15.14375 22.37125 14.1875 22.5625 C9.08450408 23.3184994 4.09079524 22.57307264 -1 22 C-1.02887814 18.52085059 -1.04675687 15.04173169 -1.0625 11.5625 C-1.07087891 10.56927734 -1.07925781 9.57605469 -1.08789062 8.55273438 C-1.09111328 7.60849609 -1.09433594 6.66425781 -1.09765625 5.69140625 C-1.10289307 4.81685791 -1.10812988 3.94230957 -1.11352539 3.04125977 C-1 1 -1 1 0 0 Z " fill="#070D11" transform="translate(791,567)"/>
<path d="M0 0 C1.03688965 0.01047363 2.0737793 0.02094727 3.14208984 0.03173828 C4.26357422 0.03818359 5.38505859 0.04462891 6.54052734 0.05126953 C7.71615234 0.06802734 8.89177734 0.08478516 10.10302734 0.10205078 C11.28638672 0.11107422 12.46974609 0.12009766 13.68896484 0.12939453 C16.61885257 0.15302266 19.54834075 0.18596564 22.47802734 0.22705078 C21.81802734 1.54705078 21.15802734 2.86705078 20.47802734 4.22705078 C19.4564856 4.20348511 19.4564856 4.20348511 18.41430664 4.17944336 C15.33146453 4.11711856 12.24875491 4.0780682 9.16552734 4.03955078 C7.55774414 4.0018457 7.55774414 4.0018457 5.91748047 3.96337891 C4.88945313 3.95371094 3.86142578 3.94404297 2.80224609 3.93408203 C1.85438232 3.91837158 0.90651855 3.90266113 -0.07006836 3.88647461 C-2.91968673 4.28229435 -3.77173371 5.00529797 -5.52197266 7.22705078 C-4.44403178 0.40009192 -4.44403178 0.40009192 0 0 Z " fill="#262D2E" transform="translate(905.52197265625,557.77294921875)"/>
<path d="M0 0 C0.33 0.66 0.66 1.32 1 2 C-0.375 3.5 -0.375 3.5 -2 5 C-2.66 5 -3.32 5 -4 5 C-4.268125 6.134375 -4.53625 7.26875 -4.8125 8.4375 C-5.204375 9.613125 -5.59625 10.78875 -6 12 C-6.99 12.33 -7.98 12.66 -9 13 C-9.95830831 15.160312 -9.95830831 15.160312 -10.5625 17.75 C-11.52702916 21.28827279 -12.63808778 24.59521946 -14 28 C-15.04026656 31.32164323 -16.02665911 34.65819629 -17 38 C-17.99 38 -18.98 38 -20 38 C-12.99042208 15.08766355 -12.99042208 15.08766355 -6 5 C-5.49984375 4.25878906 -4.9996875 3.51757812 -4.484375 2.75390625 C-3 1 -3 1 0 0 Z " fill="#1FB8BB" transform="translate(163,397)"/>
<path d="M0 0 C6.65639194 -0.55062066 11.73742604 -0.56671157 17.27734375 3.4375 C21.15688768 6.9563607 24.08605075 10.77335273 25 16 C25.06688591 17.91561254 25.08531719 19.83335592 25.0625 21.75 C25.05347656 22.73484375 25.04445313 23.7196875 25.03515625 24.734375 C25.02355469 25.48203125 25.01195312 26.2296875 25 27 C24.67 27 24.34 27 24 27 C23.938125 25.72125 23.87625 24.4425 23.8125 23.125 C23.03229411 16.26568992 20.39248426 10.39248426 15.5 5.5 C10.19024263 3.2243897 4.71142973 2.64401878 -1 2 C-0.67 1.34 -0.34 0.68 0 0 Z " fill="#1A2228" transform="translate(702,500)"/>
<path d="M0 0 C2.87579981 4.31369972 4 7.80734761 4 13 C2.65421875 13.03867187 2.65421875 13.03867187 1.28125 13.078125 C-11.49165487 13.65871159 -23.46780434 16.02345655 -35.1796875 21.36328125 C-35.78039062 21.57339844 -36.38109375 21.78351563 -37 22 C-37.66 21.67 -38.32 21.34 -39 21 C-33.76370829 17.73255397 -28.84102896 15.78363851 -22.875 14.25 C-22.04766357 14.0331958 -21.22032715 13.8163916 -20.36791992 13.59301758 C-13.36296633 11.86875263 -7.234075 11.57446618 0 12 C0 8.04 0 4.08 0 0 Z " fill="#1FD7CE" transform="translate(296,423)"/>
<path d="M0 0 C0.66 0.66 1.32 1.32 2 2 C-4.29981221 4.13097096 -10.58260813 6.24980222 -17 8 C-17.99 11.96 -18.98 15.92 -20 20 C-20.33 20 -20.66 20 -21 20 C-21 16.37 -21 12.74 -21 9 C-22.32 8.34 -23.64 7.68 -25 7 C-21.535 6.505 -21.535 6.505 -18 6 C-17.67 5.01 -17.34 4.02 -17 3 C-16.27554687 2.95101562 -15.55109375 2.90203125 -14.8046875 2.8515625 C-9.58541133 2.44793848 -4.90186342 1.98724193 0 0 Z " fill="#27C29D" transform="translate(319,592)"/>
<path d="M0 0 C0.33 0 0.66 0 1 0 C1.03738281 0.95261719 1.07476562 1.90523437 1.11328125 2.88671875 C1.17902344 4.14097656 1.24476563 5.39523437 1.3125 6.6875 C1.37050781 7.92886719 1.42851562 9.17023437 1.48828125 10.44921875 C2.01762377 14.12229015 2.7054677 16.10920872 5 19 C13.24350069 21.84258645 22.34990236 21.62261342 31 22 C31 22.33 31 22.66 31 23 C29.80455566 23.029729 29.80455566 23.029729 28.58496094 23.06005859 C24.97297528 23.15533248 21.36156601 23.26500307 17.75 23.375 C15.86861328 23.42140625 15.86861328 23.42140625 13.94921875 23.46875 C12.74394531 23.50742187 11.53867188 23.54609375 10.296875 23.5859375 C8.63156738 23.63306885 8.63156738 23.63306885 6.93261719 23.68115234 C4.11134958 23.98789356 2.4029991 24.54286225 0 26 C0.99 24.35 1.98 22.7 3 21 C1.9790625 19.700625 1.9790625 19.700625 0.9375 18.375 C-2.38445456 12.74516122 -0.7906205 6.19605846 0 0 Z M-2 26 C0 27 0 27 0 27 Z " fill="#1F96CC" transform="translate(203,557)"/>
<path d="M0 0 C1.32 0.66 2.64 1.32 4 2 C4 6.62 4 11.24 4 16 C3.67 16 3.34 16 3 16 C3 12.04 3 8.08 3 4 C-3.6 4 -10.2 4 -17 4 C-17 8.62 -17 13.24 -17 18 C-17.33 18 -17.66 18 -18 18 C-18.33 12.72 -18.66 7.44 -19 2 C-17.71222656 1.93941406 -16.42445313 1.87882812 -15.09765625 1.81640625 C-13.41925841 1.73201753 -11.74087364 1.6473687 -10.0625 1.5625 C-8.78729492 1.50352539 -8.78729492 1.50352539 -7.48632812 1.44335938 C-6.67744141 1.40146484 -5.86855469 1.35957031 -5.03515625 1.31640625 C-3.91185913 1.26141968 -3.91185913 1.26141968 -2.76586914 1.20532227 C-0.97538674 1.18228937 -0.97538674 1.18228937 0 0 Z " fill="#172025" transform="translate(680,480)"/>
<path d="M0 0 C0.66 0 1.32 0 2 0 C2.36351562 1.17755859 2.36351562 1.17755859 2.734375 2.37890625 C6.86057692 15.39904874 6.86057692 15.39904874 17 24 C19.13362368 24.63831315 19.13362368 24.63831315 21 25 C20.67 25.66 20.34 26.32 20 27 C14.03509515 26.62719345 9.2563388 22.51436294 5.39453125 18.2109375 C3.61810518 15.3945309 2.75939409 12.62646517 1.8125 9.4375 C1.46832031 8.30183594 1.12414062 7.16617188 0.76953125 5.99609375 C0 3 0 3 0 0 Z " fill="#1E262C" transform="translate(851,544)"/>
<path d="M0 0 C0.66 0.33 1.32 0.66 2 1 C0.93987294 2.23121385 -0.12324005 3.45985685 -1.1875 4.6875 C-1.77917969 5.37199219 -2.37085937 6.05648438 -2.98046875 6.76171875 C-5 9 -5 9 -7.48046875 11.37890625 C-14.04834715 18.21153634 -18.53426497 26.90760207 -21 36 C-21.33 36 -21.66 36 -22 36 C-22.71686533 26.24185358 -15.78669657 17.37174124 -9.84375 10.078125 C-6.72011785 6.55742096 -3.4057626 3.24653214 0 0 Z " fill="#2282DA" transform="translate(106,453)"/>
<path d="M0 0 C0.84433594 0.04833984 1.68867188 0.09667969 2.55859375 0.14648438 C3.43128906 0.20255859 4.30398437 0.25863281 5.203125 0.31640625 C6.53537109 0.3947168 6.53537109 0.3947168 7.89453125 0.47460938 C10.08111696 0.60392358 12.26720394 0.73887267 14.453125 0.87890625 C14.453125 1.20890625 14.453125 1.53890625 14.453125 1.87890625 C13.33035156 1.92789062 12.20757812 1.976875 11.05078125 2.02734375 C-2.01752936 1.90148126 -2.01752936 1.90148126 -13.546875 6.56640625 C-14.8727158 9.63241311 -15.22860019 12.56884818 -15.546875 15.87890625 C-16.206875 15.54890625 -16.866875 15.21890625 -17.546875 14.87890625 C-17.546875 11.24890625 -17.546875 7.61890625 -17.546875 3.87890625 C-14.34886729 2.59970317 -11.79971771 1.61341912 -8.546875 0.87890625 C-7.63760254 0.61412476 -7.63760254 0.61412476 -6.70996094 0.34399414 C-4.35501204 -0.16234645 -2.40129568 -0.14602474 0 0 Z " fill="#14AEB9" transform="translate(219.546875,457.12109375)"/>
<path d="M0 0 C-1.24430372 2.59229942 -2.61592763 5.07965579 -4.0625 7.5625 C-6.69458674 12.23233131 -7.40271017 16.45316738 -8.0625 21.6875 C-8.15337891 22.38939453 -8.24425781 23.09128906 -8.33789062 23.81445312 C-8.56125994 25.54262623 -8.78098496 27.27126967 -9 29 C-11.34179133 26.65820867 -11.29546326 26.18019135 -11.3125 23 C-11.1417009 16.7407154 -8.36427107 0 0 0 Z " fill="#222B30" transform="translate(575,509)"/>
<path d="M0 0 C6.59801825 0.75372792 9.86416442 5.15910985 14 10 C18.32273815 15.84153804 20.72981036 20.70487982 21 28 C19.02495013 25.03742519 17.52878912 22.05757825 15.9375 18.875 C12.50273622 12.42311667 8.40717295 7.84130601 3 3 C1.99334096 2.00670369 0.99055181 1.00935975 0 0 Z " fill="#1F2628" transform="translate(904,487)"/>
<path d="M0 0 C-2.14560526 2.14560526 -3.88772171 2.97881813 -6.625 4.25 C-14.15579577 7.95562966 -19.91215877 12.32220838 -25 19 C-25.33 18.01 -25.66 17.02 -26 16 C-20.18153079 9.74423456 -14.79327558 4.6111083 -7 1 C-4.53721199 -0.231394 -2.7204945 -0.07159196 0 0 Z " fill="#1F282A" transform="translate(865,482)"/>
<path d="M0 0 C3.74083492 3.02829494 5.64291283 7.40878262 6.28930664 12.09936523 C6.40052585 14.30309801 6.40986349 16.48141593 6.375 18.6875 C6.38660156 19.43322266 6.39820313 20.17894531 6.41015625 20.94726562 C6.38722095 25.23234368 6.08378506 27.90805678 3 31 C3.01571045 30.43079834 3.0314209 29.86159668 3.04760742 29.27514648 C3.11048439 26.66270126 3.14915532 24.0504159 3.1875 21.4375 C3.21263672 20.54224609 3.23777344 19.64699219 3.26367188 18.72460938 C3.32741024 12.92441831 2.5014894 9.20651205 0 4 C0 2.68 0 1.36 0 0 Z " fill="#2C3538" transform="translate(497,472)"/>
<path d="M0 0 C0.99 0 1.98 0 3 0 C3 10.89 3 21.78 3 33 C2.67 33 2.34 33 2 33 C1.93941406 32.02417969 1.87882813 31.04835938 1.81640625 30.04296875 C1.73261719 28.77066406 1.64882813 27.49835937 1.5625 26.1875 C1.48128906 24.92292969 1.40007813 23.65835938 1.31640625 22.35546875 C1.12815453 19.00818107 1.12815453 19.00818107 0 16 C-0.07051114 13.26134713 -0.09357765 10.54972412 -0.0625 7.8125 C-0.05798828 7.06291016 -0.05347656 6.31332031 -0.04882812 5.54101562 C-0.03706354 3.69397617 -0.01912865 1.84697787 0 0 Z " fill="#152127" transform="translate(541,520)"/>
<path d="M0 0 C3.63 0.33 7.26 0.66 11 1 C10.31421875 1.52078125 9.6284375 2.0415625 8.921875 2.578125 C6.62160897 4.91011725 6.62160897 4.91011725 7.265625 8.234375 C7.59046875 9.39453125 7.9153125 10.5546875 8.25 11.75 C8.56453125 12.92046875 8.8790625 14.0909375 9.203125 15.296875 C9.46609375 16.18890625 9.7290625 17.0809375 10 18 C9.34 18.33 8.68 18.66 8 19 C5.67344909 13.01589463 3.57065878 7.41991126 3 1 C1.68 1.33 0.36 1.66 -1 2 C-0.67 1.34 -0.34 0.68 0 0 Z " fill="#1F99D0" transform="translate(141,598)"/>
<path d="M0 0 C2 3 2 3 1.875 5.0625 C0.7413007 7.57283417 -0.48618938 8.02691202 -3 9 C-3 8.34 -3 7.68 -3 7 C-4.11375 7.165 -5.2275 7.33 -6.375 7.5 C-11.19912604 8.09440124 -16.15567333 8.53125516 -21 8 C-21.66 7.34 -22.32 6.68 -23 6 C-21 4 -21 4 -18.84521484 3.77294922 C-17.97590332 3.78342285 -17.1065918 3.79389648 -16.2109375 3.8046875 C-15.26992188 3.81113281 -14.32890625 3.81757812 -13.359375 3.82421875 C-12.37453125 3.84097656 -11.3896875 3.85773437 -10.375 3.875 C-9.38242187 3.88402344 -8.38984375 3.89304687 -7.3671875 3.90234375 C-4.91121866 3.92595884 -2.45572832 3.95889201 0 4 C0 2.68 0 1.36 0 0 Z " fill="#3B4443" transform="translate(684,582)"/>
<path d="M0 0 C1.485 0.99 1.485 0.99 3 2 C3.35644531 3.98364258 3.35644531 3.98364258 3.328125 6.39453125 C3.32296875 7.26787109 3.3178125 8.14121094 3.3125 9.04101562 C3.291875 9.95560547 3.27125 10.87019531 3.25 11.8125 C3.24484375 12.71548828 3.2396875 13.61847656 3.234375 14.54882812 C3.18429972 18.80835649 3.07843683 22.85149703 2 27 C1.34 26.67 0.68 26.34 0 26 C0 17.42 0 8.84 0 0 Z " fill="#293438" transform="translate(725,518)"/>
<path d="M0 0 C7.59 0 15.18 0 23 0 C23 0.66 23 1.32 23 2 C19.8870419 3.55647905 16.60088167 3.18446048 13.1875 3.1875 C12.11918945 3.20586914 12.11918945 3.20586914 11.02929688 3.22460938 C6.8982511 3.23607389 3.71232998 2.84522492 0 1 C0 0.67 0 0.34 0 0 Z " fill="#2C3538" transform="translate(868,589)"/>
<path d="M0 0 C-0.33 5.61 -0.66 11.22 -1 17 C-1.33 17 -1.66 17 -2 17 C-2 12.71 -2 8.42 -2 4 C-5.80859375 4.09765625 -5.80859375 4.09765625 -9.6171875 4.1953125 C-12 4 -12 4 -14 2 C-8.86048829 0.58220367 -5.49046024 0 0 0 Z " fill="#2396DA" transform="translate(145,436)"/>
<path d="M0 0 C3.99654278 3.99654278 3.95411436 6.22881441 4.09765625 11.76953125 C4.09108215 13.11722242 4.07926444 14.46489707 4.0625 15.8125 C4.05798828 16.50537109 4.05347656 17.19824219 4.04882812 17.91210938 C4.03713156 19.60811068 4.01919924 21.30406703 4 23 C3.34 23.33 2.68 23.66 2 24 C1.34 16.08 0.68 8.16 0 0 Z " fill="#252E31" transform="translate(524,474)"/>
<path d="M0 0 C4.12403143 3.29922514 5.30816275 6.91765715 6 12 C6.13998683 15.00971693 6.12540709 17.99022992 6 21 C5.34 21 4.68 21 4 21 C3.79503906 19.90300781 3.59007812 18.80601562 3.37890625 17.67578125 C3.10678707 16.22135113 2.83465075 14.76692422 2.5625 13.3125 C2.36043945 12.2306543 2.36043945 12.2306543 2.15429688 11.12695312 C1.45901155 7.41311202 0.75225298 3.70283746 0 0 Z " fill="#1E282B" transform="translate(786,507)"/>
<path d="M0 0 C6.48451172 0.27018799 10.2882264 2.59418572 15 7 C16.74462314 8.98295964 17.7801878 10.61341091 19 13 C18.67 13.99 18.34 14.98 18 16 C17.62230469 15.41992188 17.24460937 14.83984375 16.85546875 14.2421875 C12.21855838 7.66146693 7.26313651 4.34918591 0 1 C0 0.67 0 0.34 0 0 Z " fill="#222B2E" transform="translate(725,481)"/>
<path d="M0 0 C-2.67832127 2.67832127 -4.43292143 2.9797953 -8.1862793 3.11352539 C-9.46929932 3.10828857 -10.75231934 3.10305176 -12.07421875 3.09765625 C-13.09996758 3.09553383 -13.09996758 3.09553383 -14.1464386 3.09336853 C-16.32683722 3.08777876 -18.50713251 3.07522822 -20.6875 3.0625 C-22.16731622 3.05748367 -23.64713406 3.052921 -25.12695312 3.04882812 C-28.75133557 3.03781271 -32.3756577 3.02055512 -36 3 C-36 2.67 -36 2.34 -36 2 C-35.26362305 1.97494385 -34.52724609 1.9498877 -33.76855469 1.92407227 C-30.42886622 1.80795727 -27.08944903 1.68530082 -23.75 1.5625 C-22.59113281 1.52318359 -21.43226563 1.48386719 -20.23828125 1.44335938 C-18.56572266 1.38051758 -18.56572266 1.38051758 -16.859375 1.31640625 C-15.31975098 1.26141968 -15.31975098 1.26141968 -13.74902344 1.20532227 C-9.02569445 0.85254077 -4.82949796 -0.09287496 0 0 Z " fill="#04090F" transform="translate(485,515)"/>
<path d="M0 0 C0.99 0.66 1.98 1.32 3 2 C1.83082031 2.04898437 0.66164063 2.09796875 -0.54296875 2.1484375 C-2.09116804 2.22350171 -3.63934401 2.29904795 -5.1875 2.375 C-5.95642578 2.4059375 -6.72535156 2.436875 -7.51757812 2.46875 C-11.8140145 2.69002569 -15.0020978 3.31898079 -19 5 C-19.99 4.67 -20.98 4.34 -22 4 C-14.92295448 -0.52930913 -8.30262355 -0.90727525 0 0 Z " fill="#21282B" transform="translate(885,498)"/>
<path d="M0 0 C0.33 0.66 0.66 1.32 1 2 C-0.00160156 2.04898437 -1.00320313 2.09796875 -2.03515625 2.1484375 C-3.37762759 2.22354079 -4.7200743 2.29908526 -6.0625 2.375 C-7.37347656 2.44460938 -8.68445313 2.51421875 -10.03515625 2.5859375 C-13.98136957 2.99805436 -17.24117073 3.79756567 -21 5 C-21 4.01 -21 3.02 -21 2 C-14.11997829 -0.62096065 -7.27823961 -0.18170362 0 0 Z " fill="#2F3430" transform="translate(785,479)"/>
<path d="M0 0 C0.8971875 0.309375 0.8971875 0.309375 1.8125 0.625 C1.3278125 0.9653125 0.843125 1.305625 0.34375 1.65625 C-5.01332354 5.52982625 -9.62757381 9.84677947 -14.1875 14.625 C-14.5175 13.635 -14.8475 12.645 -15.1875 11.625 C-13.5864569 9.9969224 -11.98155264 8.37264115 -10.375 6.75 C-9.48167969 5.84507812 -8.58835937 4.94015625 -7.66796875 4.0078125 C-2.96651431 -0.50854531 -2.96651431 -0.50854531 0 0 Z " fill="#222B2F" transform="translate(761.1875,483.375)"/>
<path d="M0 0 C1.32 0.33 2.64 0.66 4 1 C3.20207031 1.52078125 2.40414062 2.0415625 1.58203125 2.578125 C-1.65575341 5.61507884 -1.83384174 7.3985613 -2.3125 11.75 C-2.52326172 13.50570313 -2.52326172 13.50570313 -2.73828125 15.296875 C-2.86783203 16.63492187 -2.86783203 16.63492187 -3 18 C-3.66 18 -4.32 18 -5 18 C-6.46167739 13.32263235 -5.72435821 9.47791451 -4 5 C-1.875 2 -1.875 2 0 0 Z " fill="#1C2224" transform="translate(619,441)"/>
<path d="M0 0 C0.8971875 0.309375 0.8971875 0.309375 1.8125 0.625 C0.90757812 1.29595703 0.90757812 1.29595703 -0.015625 1.98046875 C-4.33850573 5.25051885 -7.87826507 8.29753893 -11.1875 12.625 C-12.1775 12.955 -13.1675 13.285 -14.1875 13.625 C-12.78064361 8.46652659 -6.00433242 -1.02931413 0 0 Z " fill="#1D262B" transform="translate(699.1875,483.375)"/>
<path d="M0 0 C1.98 0 3.96 0 6 0 C6 1.65 6 3.3 6 5 C4.0625 5.5625 4.0625 5.5625 2 6 C1.67 5.67 1.34 5.34 1 5 C-1.52596259 4.76346477 -4.03107207 4.57826308 -6.5625 4.4375 C-7.27341797 4.39431641 -7.98433594 4.35113281 -8.71679688 4.30664062 C-10.47761912 4.20028223 -12.2387832 4.09961154 -14 4 C-14 3.67 -14 3.34 -14 3 C-13.07316406 2.95101563 -12.14632812 2.90203125 -11.19140625 2.8515625 C-9.99386719 2.77679688 -8.79632813 2.70203125 -7.5625 2.625 C-6.36753906 2.55539062 -5.17257813 2.48578125 -3.94140625 2.4140625 C-2.97074219 2.27742188 -2.00007812 2.14078125 -1 2 C-0.67 1.34 -0.34 0.68 0 0 Z " fill="#24C7B9" transform="translate(235,456)"/>
<path d="M0 0 C6.0948005 0.12967661 9.39559563 2.35052411 14.1796875 6.015625 C16.31006506 8.33801084 16.66945465 9.90780158 17 13 C16.38125 12.29875 15.7625 11.5975 15.125 10.875 C11.92895822 7.64211624 8.13614009 5.56461334 4.20703125 3.33203125 C2 2 2 2 0 0 Z " fill="#222A2C" transform="translate(790,482)"/>
<path d="M0 0 C1.3804071 3.72709918 0.55230224 5.42970486 -1 9 C-2.05013032 12.31861571 -3.02664285 15.65814045 -4 19 C-4.99 19 -5.98 19 -7 19 C-6.02567877 16.01922628 -5.04473557 13.04067422 -4.0625 10.0625 C-3.78470703 9.21236328 -3.50691406 8.36222656 -3.22070312 7.48632812 C-2.95322266 6.67744141 -2.68574219 5.86855469 -2.41015625 5.03515625 C-2.16402588 4.2862915 -1.91789551 3.53742676 -1.66430664 2.76586914 C-1 1 -1 1 0 0 Z " fill="#21B2C6" transform="translate(150,416)"/>
<path d="M0 0 C-0.66 0.66 -1.32 1.32 -2 2 C-2.61056087 4.02213278 -3.14363995 6.06827978 -3.625 8.125 C-4.01558594 9.76855469 -4.01558594 9.76855469 -4.4140625 11.4453125 C-4.60742188 12.28835938 -4.80078125 13.13140625 -5 14 C-5.33 14 -5.66 14 -6 14 C-6 10.37 -6 6.74 -6 3 C-7.32 2.34 -8.64 1.68 -10 1 C-6.78548731 -0.60725635 -3.56387464 -0.05748185 0 0 Z " fill="#23C4C1" transform="translate(304,598)"/>
<path d="M0 0 C0.66 0 1.32 0 2 0 C2 0.66 2 1.32 2 2 C0.20703125 3.4375 0.20703125 3.4375 -2.1875 5 C-2.96480469 5.515625 -3.74210938 6.03125 -4.54296875 6.5625 C-9.17911605 9.27490414 -12.61127229 10.2506385 -18 10 C-17.47792969 9.74347656 -16.95585938 9.48695313 -16.41796875 9.22265625 C-13.35679871 7.67476251 -10.33534585 6.05893691 -7.3125 4.4375 C-6.15363281 3.81746094 -4.99476563 3.19742188 -3.80078125 2.55859375 C-1.17178215 1.2631282 -1.17178215 1.2631282 0 0 Z " fill="#262C2E" transform="translate(912,579)"/>
<path d="M0 0 C0.66 0 1.32 0 2 0 C1.67854004 0.70664795 1.35708008 1.4132959 1.02587891 2.14135742 C-0.0594592 5.16568485 -0.31133474 7.53659945 -0.4140625 10.73828125 C-0.45273438 11.80498047 -0.49140625 12.87167969 -0.53125 13.97070312 C-0.5621875 15.07349609 -0.593125 16.17628906 -0.625 17.3125 C-0.66367188 18.43462891 -0.70234375 19.55675781 -0.7421875 20.71289062 C-0.83622011 23.47509852 -0.92187341 26.237304 -1 29 C-1.33 29 -1.66 29 -2 29 C-2.0578304 24.54172074 -2.09353855 20.0835372 -2.125 15.625 C-2.14175781 14.35398437 -2.15851563 13.08296875 -2.17578125 11.7734375 C-2.18222656 10.56171875 -2.18867188 9.35 -2.1953125 8.1015625 C-2.21102295 6.42054443 -2.21102295 6.42054443 -2.22705078 4.70556641 C-2 2 -2 2 0 0 Z " fill="#137FD4" transform="translate(165,501)"/>
<path d="M0 0 C-0.76957031 0.38091797 -0.76957031 0.38091797 -1.5546875 0.76953125 C-3.50542429 1.75113203 -5.44594522 2.7530269 -7.3828125 3.76171875 C-8.63011424 4.40382863 -9.87751242 5.04575123 -11.125 5.6875 C-11.75792969 6.02072266 -12.39085938 6.35394531 -13.04296875 6.69726562 C-14.6656009 7.52580709 -16.3307327 8.26995703 -18 9 C-18.66 8.67 -19.32 8.34 -20 8 C-4.64325843 -1.54775281 -4.64325843 -1.54775281 0 0 Z " fill="#2B8DD8" transform="translate(132,440)"/>
<path d="M0 0 C0.44730469 0.40992188 0.89460937 0.81984375 1.35546875 1.2421875 C4.75235465 4.26968922 7.5863155 6.61284201 12 8 C12.66 8.33 13.32 8.66 14 9 C13.67 9.66 13.34 10.32 13 11 C7.82951002 10.67684438 3.48928572 7.69708438 0 4 C0 2.68 0 1.36 0 0 Z " fill="#262F34" transform="translate(858,560)"/>
<path d="M0 0 C0.66 0.66 1.32 1.32 2 2 C1.31035156 1.98839844 0.62070312 1.97679687 -0.08984375 1.96484375 C-6.15772652 1.90657876 -11.98357396 2.21096052 -18 3 C-13.04487801 -1.95512199 -6.42151544 -1.43213654 0 0 Z " fill="#1C252A" transform="translate(778,501)"/>
<path d="M0 0 C0.99 0 1.98 0 3 0 C3.05406122 1.93719378 3.09282025 3.87481921 3.125 5.8125 C3.14820313 6.89144531 3.17140625 7.97039063 3.1953125 9.08203125 C3 12 3 12 1 15 C0.15318867 9.91913204 -0.09038099 5.15171623 0 0 Z " fill="#182124" transform="translate(541,568)"/>
<path d="M0 0 C0 0.66 0 1.32 0 2 C-2.265625 3.76171875 -2.265625 3.76171875 -5.25 5.6875 C-6.22453125 6.33074219 -7.1990625 6.97398437 -8.203125 7.63671875 C-11 9 -11 9 -13.359375 8.70703125 C-13.90078125 8.47371094 -14.4421875 8.24039063 -15 8 C-14.31292969 7.59007812 -13.62585938 7.18015625 -12.91796875 6.7578125 C-12.01691406 6.21898437 -11.11585938 5.68015625 -10.1875 5.125 C-9.29417969 4.59132813 -8.40085937 4.05765625 -7.48046875 3.5078125 C-1.70984456 0 -1.70984456 0 0 0 Z " fill="#212A2D" transform="translate(514,523)"/>
<path d="M0 0 C0.33 0 0.66 0 1 0 C1 7.26 1 14.52 1 22 C0.01 21.67 -0.98 21.34 -2 21 C-1.85796663 18.62471849 -1.71148388 16.24984749 -1.5625 13.875 C-1.52318359 13.20984375 -1.48386719 12.5446875 -1.44335938 11.859375 C-1.187848 7.84981183 -0.73217587 3.95005804 0 0 Z " fill="#3ADCA5" transform="translate(367,516)"/>
<path d="M0 0 C2.92188322 2.6296949 4.97298548 5.64494149 7 9 C7 9.99 7 10.98 7 12 C6.34 12 5.68 12 5 12 C3.02 8.535 3.02 8.535 1 5 C0.01 5.495 0.01 5.495 -1 6 C-0.67 4.02 -0.34 2.04 0 0 Z " fill="#252B2E" transform="translate(833,560)"/>
<path d="M0 0 C2.64 0.33 5.28 0.66 8 1 C7.42378906 1.28617187 6.84757813 1.57234375 6.25390625 1.8671875 C4.81781777 2.58896507 3.38738204 3.32218296 1.96484375 4.0703125 C1.29582031 4.41835938 0.62679687 4.76640625 -0.0625 5.125 C-0.73410156 5.47820312 -1.40570312 5.83140625 -2.09765625 6.1953125 C-4 7 -4 7 -7 7 C-5.37660195 5.29115995 -3.70680947 3.62553283 -2 2 C-1.34 2 -0.68 2 0 2 C0 1.34 0 0.68 0 0 Z " fill="#1F262A" transform="translate(582,480)"/>
<path d="M0 0 C0.66 0 1.32 0 2 0 C5.42857143 8.42857143 5.42857143 8.42857143 5 13 C4.34 13 3.68 13 3 13 C2.49487756 11.39743892 1.99608373 9.79288208 1.5 8.1875 C1.2215625 7.29417969 0.943125 6.40085937 0.65625 5.48046875 C0 3 0 3 0 0 Z " fill="#22292A" transform="translate(808,496)"/>
<path d="M0 0 C1.93681161 -0.08107583 3.8745934 -0.13922475 5.8125 -0.1875 C6.89144531 -0.22230469 7.97039062 -0.25710938 9.08203125 -0.29296875 C12 0 12 0 13.88671875 1.38671875 C15 3 15 3 15 5 C13.02 5 11.04 5 9 5 C9 4.01 9 3.02 9 2 C6.03 1.67 3.06 1.34 0 1 C0 0.67 0 0.34 0 0 Z " fill="#21D2C8" transform="translate(233,371)"/>
<path d="M0 0 C3.63 0.33 7.26 0.66 11 1 C10.21625 1.598125 9.4325 2.19625 8.625 2.8125 C5.85425677 4.91085249 5.85425677 4.91085249 4 8 C3.67 5.69 3.34 3.38 3 1 C1.68 1.33 0.36 1.66 -1 2 C-0.67 1.34 -0.34 0.68 0 0 Z " fill="#2EA1D6" transform="translate(141,598)"/>
<path d="M0 0 C5.05255964 0.63156995 9.29593201 2.13459373 14 4 C14 4.33 14 4.66 14 5 C9.02906176 4.58846263 4.55491614 4.20399168 0 2 C0 1.34 0 0.68 0 0 Z " fill="#1DA3C2" transform="translate(189,657)"/>
<path d="M0 0 C2.31 0 4.62 0 7 0 C7 0.66 7 1.32 7 2 C2.545 3.485 2.545 3.485 -2 5 C-1.34 3.35 -0.68 1.7 0 0 Z " fill="#1FB6C8" transform="translate(251,656)"/>
<path d="M0 0 C8.19256018 -0.4726477 8.19256018 -0.4726477 11.5625 1.5 C12.036875 1.995 12.51125 2.49 13 3 C11.02 3.99 11.02 3.99 9 5 C9 4.34 9 3.68 9 3 C7.88625 2.87625 6.7725 2.7525 5.625 2.625 C2 2 2 2 0 0 Z " fill="#3090DC" transform="translate(127,594)"/>
<path d="M0 0 C6.6 0 13.2 0 20 0 C20 0.99 20 1.98 20 3 C19.34 3 18.68 3 18 3 C18 2.34 18 1.68 18 1 C17.071875 1.185625 16.14375 1.37125 15.1875 1.5625 C10.09179306 2.31741955 5.08352762 1.59752133 0 1 C0 0.67 0 0.34 0 0 Z " fill="#656F66" transform="translate(790,588)"/>
<path d="M0 0 C2.86867231 1.38264837 5.56024032 2.92148553 8.25 4.625 C8.95640625 5.07101562 9.6628125 5.51703125 10.390625 5.9765625 C10.92171875 6.31429687 11.4528125 6.65203125 12 7 C10.265625 7.67578125 10.265625 7.67578125 8 8 C5.859375 6.85546875 5.859375 6.85546875 3.75 5.1875 C3.04359375 4.64480469 2.3371875 4.10210938 1.609375 3.54296875 C1.07828125 3.03378906 0.5471875 2.52460937 0 2 C0 1.34 0 0.68 0 0 Z " fill="#202629" transform="translate(846,578)"/>
<path d="M0 0 C0.671875 1.734375 0.671875 1.734375 1 4 C-0.109375 6.140625 -0.109375 6.140625 -1.75 8.25 C-2.28109375 8.95640625 -2.8121875 9.6628125 -3.359375 10.390625 C-5 12 -5 12 -8 12 C-7.50628906 11.30132813 -7.01257813 10.60265625 -6.50390625 9.8828125 C-5.86324219 8.97273437 -5.22257813 8.06265625 -4.5625 7.125 C-3.92441406 6.22007812 -3.28632812 5.31515625 -2.62890625 4.3828125 C-1.00481862 2.12261419 -1.00481862 2.12261419 0 0 Z " fill="#1B2429" transform="translate(522,509)"/>
<path d="M0 0 C3.10096781 0.34455198 4.79937138 0.84817294 7.3125 2.75 C9.30929204 5.41238939 9.36116409 6.74952319 9 10 C8.443125 9.278125 7.88625 8.55625 7.3125 7.8125 C5.02090666 5.02542701 2.58540143 2.51358472 0 0 Z " fill="#1F2626" transform="translate(634,440)"/>
<path d="M0 0 C-0.33 0.99 -0.66 1.98 -1 3 C-4.03173281 4.19493974 -7.02459427 4.10493955 -10.25 4.0625 C-11.14203125 4.05347656 -12.0340625 4.04445313 -12.953125 4.03515625 C-13.62859375 4.02355469 -14.3040625 4.01195312 -15 4 C-15 3.67 -15 3.34 -15 3 C-12.87562952 2.49733206 -10.75048274 1.9979439 -8.625 1.5 C-7.44164062 1.2215625 -6.25828125 0.943125 -5.0390625 0.65625 C-2 0 -2 0 0 0 Z " fill="#1B2328" transform="translate(497,532)"/>
<path d="M0 0 C0.33 0 0.66 0 1 0 C1.08117951 2.41734542 1.14056926 4.83194949 1.1875 7.25 C1.21263672 7.93191406 1.23777344 8.61382812 1.26367188 9.31640625 C1.31137459 12.59199289 1.21085076 14.65348556 -0.51171875 17.484375 C-1.00285156 17.98453125 -1.49398438 18.4846875 -2 19 C-1.7834375 17.63875 -1.7834375 17.63875 -1.5625 16.25 C-0.78452415 10.85973874 -0.41887914 5.42760412 0 0 Z " fill="#0A1114" transform="translate(502,484)"/>
<path d="M0 0 C1 4 1 4 -0.21484375 6.140625 C-0.78332031 6.83671875 -1.35179687 7.5328125 -1.9375 8.25 C-2.50339844 8.95640625 -3.06929687 9.6628125 -3.65234375 10.390625 C-4.31943359 11.18726563 -4.31943359 11.18726563 -5 12 C-5.66 11.67 -6.32 11.34 -7 11 C-4.69 7.37 -2.38 3.74 0 0 Z " fill="#1F2323" transform="translate(924,563)"/>
<path d="M0 0 C0.66 0 1.32 0 2 0 C3.33257403 9.41002278 3.33257403 9.41002278 2 14 C1.67 14 1.34 14 1 14 C0.67 9.38 0.34 4.76 0 0 Z " fill="#1F272C" transform="translate(925,516)"/>
<path d="M0 0 C0.33 0 0.66 0 1 0 C1.33 3.96 1.66 7.92 2 12 C3.32 11.34 4.64 10.68 6 10 C5.34 11.65 4.68 13.3 4 15 C2.68 14.34 1.36 13.68 0 13 C0 8.71 0 4.42 0 0 Z " fill="#19252D" transform="translate(563,484)"/>
<path d="M0 0 C1.8871875 0.0309375 1.8871875 0.0309375 3.8125 0.0625 C3.8125 0.7225 3.8125 1.3825 3.8125 2.0625 C-2.1275 2.5575 -2.1275 2.5575 -8.1875 3.0625 C-6.45706736 -0.39836529 -3.47359009 -0.0569441 0 0 Z " fill="#373E39" transform="translate(629.1875,437.9375)"/>
<path d="M0 0 C0.68359375 1.765625 0.68359375 1.765625 1 4 C-0.21484375 5.921875 -0.21484375 5.921875 -1.9375 7.75 C-2.50339844 8.36359375 -3.06929688 8.9771875 -3.65234375 9.609375 C-4.31943359 10.29773438 -4.31943359 10.29773438 -5 11 C-5.33 10.01 -5.66 9.02 -6 8 C-4.4045651 5.94272868 -2.73473712 3.94125344 -1 2 C-0.67 1.34 -0.34 0.68 0 0 Z " fill="#1E282C" transform="translate(499,501)"/>
<path d="M0 0 C2.875 -0.1875 2.875 -0.1875 6 0 C6.66 0.99 7.32 1.98 8 3 C3.545 3.495 3.545 3.495 -1 4 C-0.67 2.68 -0.34 1.36 0 0 Z " fill="#2192D5" transform="translate(168,496)"/>
<path d="M0 0 C0.99 0 1.98 0 3 0 C2.88557539 1.60495567 2.75805306 3.20898119 2.625 4.8125 C2.55539062 5.70582031 2.48578125 6.59914063 2.4140625 7.51953125 C2 10 2 10 0 13 C0 8.71 0 4.42 0 0 Z " fill="#252F32" transform="translate(541,520)"/>
<path d="M0 0 C0.66 0 1.32 0 2 0 C0.74503546 3.47528641 -0.69582535 6.11978169 -3 9 C-3.66 9.99 -4.32 10.98 -5 12 C-4.52583422 7.02125936 -3.0900669 3.93281242 0 0 Z " fill="#20282B" transform="translate(860,504)"/>
<path d="M0 0 C0.80824219 0.11085938 1.61648437 0.22171875 2.44921875 0.3359375 C3.37154297 0.47902344 3.37154297 0.47902344 4.3125 0.625 C4.3125 0.955 4.3125 1.285 4.3125 1.625 C3.69761719 1.74617188 3.08273438 1.86734375 2.44921875 1.9921875 C1.64097656 2.15976562 0.83273438 2.32734375 0 2.5 C-0.80050781 2.66242188 -1.60101563 2.82484375 -2.42578125 2.9921875 C-4.94051118 3.56978999 -4.94051118 3.56978999 -7.6875 5.625 C-7.6875 4.305 -7.6875 2.985 -7.6875 1.625 C-4.33422361 -0.61051759 -3.78006343 -0.54783528 0 0 Z " fill="#21BAC1" transform="translate(212.6875,458.375)"/>
<path d="M0 0 C-3.00617269 3.00617269 -5.82381598 2.59585316 -10 3 C-10.33 2.34 -10.66 1.68 -11 1 C-7.32589215 -0.17571451 -3.83070817 -0.07366746 0 0 Z " fill="#1A2328" transform="translate(485,515)"/>
<path d="M0 0 C0 2 0 2 -2.3125 4.5 C-5 7 -5 7 -8 9 C-7.53918323 4.85264908 -4.48412936 0 0 0 Z " fill="#192025" transform="translate(847,492)"/>
<path d="M0 0 C1.32 0.33 2.64 0.66 4 1 C2.824375 1.86625 2.824375 1.86625 1.625 2.75 C-0.80047244 4.82897637 -1.85694417 6.09040333 -3 9 C-3.75 7.3125 -3.75 7.3125 -4 5 C-2.0625 2.25 -2.0625 2.25 0 0 Z " fill="#20282B" transform="translate(619,441)"/>
<path d="M0 0 C0.99 0.33 1.98 0.66 3 1 C1.35 2.98 -0.3 4.96 -2 7 C-2.66 6.01 -3.32 5.02 -4 4 C-3.34 4 -2.68 4 -2 4 C-2 3.34 -2 2.68 -2 2 C-1.34 2 -0.68 2 0 2 C0 1.34 0 0.68 0 0 Z " fill="#1EBACB" transform="translate(277,640)"/>
<path d="M0 0 C-5.625 4 -5.625 4 -9 4 C-9 3.34 -9 2.68 -9 2 C-3.375 -1.125 -3.375 -1.125 0 0 Z " fill="#20282B" transform="translate(899,567)"/>
<path d="M0 0 C3 1 3 1 4.6875 3.9375 C6 7 6 7 6 9 C5.34 9 4.68 9 4 9 C0 2.25 0 2.25 0 0 Z " fill="#20292A" transform="translate(518,462)"/>
<path d="M0 0 C-0.33 3.3 -0.66 6.6 -1 10 C-1.66 9.67 -2.32 9.34 -3 9 C-3 6.36 -3 3.72 -3 1 C-1 0 -1 0 0 0 Z " fill="#1F2A2D" transform="translate(728,535)"/>
<path d="M0 0 C3.82946843 1.45255699 5.12050295 3.42895561 7 7 C6.01 7 5.02 7 4 7 C2.02 3.535 2.02 3.535 0 0 Z " fill="#1A2227" transform="translate(894,503)"/>
<path d="M0 0 C0 0.66 0 1.32 0 2 C-2.31 2.66 -4.62 3.32 -7 4 C-7 3.01 -7 2.02 -7 1 C-4 0 -4 0 0 0 Z " fill="#232E32" transform="translate(771,480)"/>
<path d="M0 0 C4.31392226 0.4793247 6.16569547 1.7457985 9 5 C4.68607774 4.5206753 2.83430453 3.2542015 0 0 Z " fill="#1C2529" transform="translate(486,465)"/>
<path d="M0 0 C0.33 0 0.66 0 1 0 C1 1.65 1 3.3 1 5 C0.67 5 0.34 5 0 5 C0 3.35 0 1.7 0 0 Z " fill="#4A575A" transform="translate(751,545)"/>
<path d="M0 0 C0.33 1.32 0.66 2.64 1 4 C0.34 3.34 -0.32 2.68 -1 2 C-0.67 1.34 -0.34 0.68 0 0 Z " fill="#4A5456" transform="translate(826,542)"/>
<path d="M0 0 C1 4 1 4 1 4 Z " fill="#4D5755" transform="translate(658,571)"/>
<path d="M0 0 C0.33 0.66 0.66 1.32 1 2 C0.01 1.67 -0.98 1.34 -2 1 C-1.34 0.67 -0.68 0.34 0 0 Z " fill="#4D5859" transform="translate(884,568)"/>
<path d="M0 0 C4 1 4 1 4 1 Z " fill="#5A5F55" transform="translate(923,556)"/>
<path d="M0 0 C1 4 1 4 1 4 Z " fill="#4B585A" transform="translate(751,554)"/>
<path d="M0 0 C4 1 4 1 4 1 Z " fill="#4F5757" transform="translate(893,543)"/>
<path d="M0 0 C1 4 1 4 1 4 Z " fill="#475458" transform="translate(751,529)"/>
<path d="M0 0 C0.66 0.66 1.32 1.32 2 2 C1.01 1.67 0.02 1.34 -1 1 C-0.67 0.67 -0.34 0.34 0 0 Z " fill="#475557" transform="translate(489,469)"/>
<path d="M0 0 C3 1 3 1 3 1 Z " fill="#60665C" transform="translate(675,590)"/>
<path d="M0 0 C0.66 0 1.32 0 2 0 C1.67 0.66 1.34 1.32 1 2 C0.67 1.34 0.34 0.68 0 0 Z " fill="#60685A" transform="translate(563,590)"/>
<path d="M0 0 C3 1 3 1 3 1 Z " fill="#545954" transform="translate(908,556)"/>
<path d="" fill="#465253" transform="translate(0,0)"/>
<path d="M0 0 C3 1 3 1 3 1 Z " fill="#4E5758" transform="translate(883,543)"/>
<path d="" fill="#475355" transform="translate(0,0)"/>
<path d="M0 0 C3 1 3 1 3 1 Z " fill="#545D5A" transform="translate(624,480)"/>
<path d="M0 0 C2 1 2 1 2 1 Z " fill="#54A3D2" transform="translate(130,597)"/>
<path d="" fill="#60665A" transform="translate(0,0)"/>
<path d="M0 0 C2 1 2 1 2 1 Z " fill="#60645B" transform="translate(803,590)"/>
<path d="M0 0 C2 1 2 1 2 1 Z " fill="#5A6259" transform="translate(747,590)"/>
<path d="M0 0 C2 1 2 1 2 1 Z " fill="#60665C" transform="translate(667,590)"/>
<path d="M0 0 C2 1 2 1 2 1 Z " fill="#60645A" transform="translate(635,590)"/>
<path d="M0 0 C2 1 2 1 2 1 Z " fill="#666D5F" transform="translate(443,590)"/>
<path d="M0 0 C2 1 2 1 2 1 Z " fill="#5B625A" transform="translate(858,589)"/>
<path d="M0 0 C2 1 2 1 2 1 Z " fill="#5B635A" transform="translate(856,588)"/>
<path d="" fill="#585F5A" transform="translate(0,0)"/>
<path d="" fill="#4D595A" transform="translate(0,0)"/>
<path d="M0 0 C2 1 2 1 2 1 Z " fill="#4F5757" transform="translate(888,568)"/>
<path d="" fill="#4D595C" transform="translate(0,0)"/>
<path d="M0 0 C2 1 2 1 2 1 Z " fill="#4D5858" transform="translate(896,563)"/>
<path d="M0 0 C2 1 2 1 2 1 Z " fill="#515953" transform="translate(905,556)"/>
<path d="M0 0 C2 1 2 1 2 1 Z " fill="#4E5657" transform="translate(879,543)"/>
<path d="" fill="#4A5454" transform="translate(0,0)"/>
<path d="" fill="#49575B" transform="translate(0,0)"/>
<path d="" fill="#4A5556" transform="translate(0,0)"/>
<path d="" fill="#495355" transform="translate(0,0)"/>
<path d="" fill="#475353" transform="translate(0,0)"/>
<path d="" fill="#475452" transform="translate(0,0)"/>
<path d="" fill="#475255" transform="translate(0,0)"/>
<path d="" fill="#475456" transform="translate(0,0)"/>
<path d="" fill="#525B57" transform="translate(0,0)"/>
<path d="M0 0 C2 1 2 1 2 1 Z " fill="#4B5457" transform="translate(882,501)"/>
<path d="M0 0 C2 1 2 1 2 1 Z " fill="#495357" transform="translate(873,501)"/>
<path d="" fill="#4E5757" transform="translate(0,0)"/>
<path d="" fill="#465255" transform="translate(0,0)"/>
<path d="M0 0 C2 1 2 1 2 1 Z " fill="#60685C" transform="translate(798,480)"/>
<path d="M0 0 C2 1 2 1 2 1 Z " fill="#535D5B" transform="translate(629,480)"/>
<path d="M0 0 C2 1 2 1 2 1 Z " fill="#505C5B" transform="translate(555,480)"/>
<path d="M0 0 C2 1 2 1 2 1 Z " fill="#535C55" transform="translate(542,480)"/>
<path d="" fill="#4E5856" transform="translate(0,0)"/>
<path d="M0 0 C2 1 2 1 2 1 Z " fill="#4C5757" transform="translate(485,468)"/>
<path d="M0 0 C2 1 2 1 2 1 Z " fill="#4C5758" transform="translate(482,467)"/>
<path d="M0 0 C2 1 2 1 2 1 Z " fill="#58625C" transform="translate(506,448)"/>
<path d="" fill="#97884D" transform="translate(0,0)"/>
<path d="" fill="#5CB8B8" transform="translate(0,0)"/>
<path d="" fill="#5CB7B9" transform="translate(0,0)"/>
<path d="" fill="#57AFC0" transform="translate(0,0)"/>
<path d="" fill="#59A8C6" transform="translate(0,0)"/>
<path d="" fill="#53A2D2" transform="translate(0,0)"/>
<path d="" fill="#5BCFA6" transform="translate(0,0)"/>
<path d="" fill="#60A4CF" transform="translate(0,0)"/>
<path d="" fill="#5EA4CE" transform="translate(0,0)"/>
<path d="" fill="#61665A" transform="translate(0,0)"/>
<path d="" fill="#595F57" transform="translate(0,0)"/>
<path d="" fill="#5B6257" transform="translate(0,0)"/>
<path d="" fill="#5F655C" transform="translate(0,0)"/>
<path d="" fill="#62695D" transform="translate(0,0)"/>
<path d="" fill="#65695B" transform="translate(0,0)"/>
<path d="" fill="#60A6D1" transform="translate(0,0)"/>
<path d="" fill="#5E6259" transform="translate(0,0)"/>
<path d="" fill="#5B6156" transform="translate(0,0)"/>
<path d="" fill="#5F6458" transform="translate(0,0)"/>
<path d="" fill="#5F675E" transform="translate(0,0)"/>
<path d="" fill="#61665C" transform="translate(0,0)"/>
<path d="" fill="#5D6358" transform="translate(0,0)"/>
<path d="" fill="#63665C" transform="translate(0,0)"/>
<path d="" fill="#60665A" transform="translate(0,0)"/>
<path d="" fill="#62685C" transform="translate(0,0)"/>
<path d="" fill="#616459" transform="translate(0,0)"/>
<path d="" fill="#62665C" transform="translate(0,0)"/>
<path d="" fill="#666D5F" transform="translate(0,0)"/>
<path d="" fill="#676F61" transform="translate(0,0)"/>
<path d="" fill="#6B7263" transform="translate(0,0)"/>
<path d="" fill="#5CA0CF" transform="translate(0,0)"/>
<path d="" fill="#5D6157" transform="translate(0,0)"/>
<path d="" fill="#73816B" transform="translate(0,0)"/>
<path d="" fill="#5B6258" transform="translate(0,0)"/>
<path d="" fill="#5C635B" transform="translate(0,0)"/>
<path d="" fill="#5D6359" transform="translate(0,0)"/>
<path d="" fill="#545D57" transform="translate(0,0)"/>
<path d="" fill="#5C645A" transform="translate(0,0)"/>
<path d="" fill="#60A0CF" transform="translate(0,0)"/>
<path d="" fill="#64CC9D" transform="translate(0,0)"/>
<path d="" fill="#515B55" transform="translate(0,0)"/>
<path d="" fill="#5E6456" transform="translate(0,0)"/>
<path d="" fill="#4D5955" transform="translate(0,0)"/>
<path d="" fill="#32B3C8" transform="translate(0,0)"/>
<path d="" fill="#4F5958" transform="translate(0,0)"/>
<path d="" fill="#525C5A" transform="translate(0,0)"/>
<path d="" fill="#6AA6C9" transform="translate(0,0)"/>
<path d="" fill="#545D59" transform="translate(0,0)"/>
<path d="" fill="#4C575A" transform="translate(0,0)"/>
<path d="" fill="#67A5CF" transform="translate(0,0)"/>
<path d="" fill="#4D5554" transform="translate(0,0)"/>
<path d="" fill="#4C5957" transform="translate(0,0)"/>
<path d="" fill="#4C5656" transform="translate(0,0)"/>
<path d="" fill="#64CE9C" transform="translate(0,0)"/>
<path d="" fill="#4E5858" transform="translate(0,0)"/>
<path d="" fill="#595F56" transform="translate(0,0)"/>
<path d="" fill="#585E57" transform="translate(0,0)"/>
<path d="" fill="#585D56" transform="translate(0,0)"/>
<path d="" fill="#4D5755" transform="translate(0,0)"/>
<path d="" fill="#475454" transform="translate(0,0)"/>
<path d="" fill="#4B5656" transform="translate(0,0)"/>
<path d="" fill="#4F5A5B" transform="translate(0,0)"/>
<path d="" fill="#6BA4CF" transform="translate(0,0)"/>
<path d="" fill="#4B5959" transform="translate(0,0)"/>
<path d="" fill="#62D09A" transform="translate(0,0)"/>
<path d="" fill="#4A5456" transform="translate(0,0)"/>
<path d="" fill="#4B5655" transform="translate(0,0)"/>
<path d="" fill="#4A5558" transform="translate(0,0)"/>
<path d="" fill="#475155" transform="translate(0,0)"/>
<path d="" fill="#545A5A" transform="translate(0,0)"/>
<path d="" fill="#505857" transform="translate(0,0)"/>
<path d="" fill="#4D5758" transform="translate(0,0)"/>
<path d="" fill="#505A59" transform="translate(0,0)"/>
<path d="" fill="#4D5656" transform="translate(0,0)"/>
<path d="" fill="#4E5857" transform="translate(0,0)"/>
<path d="" fill="#4C5658" transform="translate(0,0)"/>
<path d="" fill="#4A5557" transform="translate(0,0)"/>
<path d="" fill="#4B5757" transform="translate(0,0)"/>
<path d="" fill="#4A575A" transform="translate(0,0)"/>
<path d="" fill="#66CDA4" transform="translate(0,0)"/>
<path d="" fill="#36B3B1" transform="translate(0,0)"/>
<path d="" fill="#4B575C" transform="translate(0,0)"/>
<path d="" fill="#525D59" transform="translate(0,0)"/>
<path d="" fill="#515C5A" transform="translate(0,0)"/>
<path d="" fill="#515D5C" transform="translate(0,0)"/>
<path d="" fill="#4F5D5A" transform="translate(0,0)"/>
<path d="" fill="#4C5458" transform="translate(0,0)"/>
<path d="" fill="#4D5959" transform="translate(0,0)"/>
<path d="" fill="#31C6A4" transform="translate(0,0)"/>
<path d="" fill="#4C5759" transform="translate(0,0)"/>
<path d="" fill="#3B9EE4" transform="translate(0,0)"/>
<path d="" fill="#535E5E" transform="translate(0,0)"/>
<path d="" fill="#47535A" transform="translate(0,0)"/>
<path d="" fill="#495656" transform="translate(0,0)"/>
<path d="" fill="#4A5456" transform="translate(0,0)"/>
<path d="" fill="#4B5556" transform="translate(0,0)"/>
<path d="" fill="#495556" transform="translate(0,0)"/>
<path d="" fill="#4A5455" transform="translate(0,0)"/>
<path d="" fill="#4A5656" transform="translate(0,0)"/>
<path d="" fill="#5A5E58" transform="translate(0,0)"/>
<path d="" fill="#4D5856" transform="translate(0,0)"/>
<path d="" fill="#4B5556" transform="translate(0,0)"/>
<path d="" fill="#495453" transform="translate(0,0)"/>
<path d="" fill="#4A5255" transform="translate(0,0)"/>
<path d="" fill="#4D595B" transform="translate(0,0)"/>
<path d="" fill="#4B5658" transform="translate(0,0)"/>
<path d="" fill="#4D575A" transform="translate(0,0)"/>
<path d="" fill="#4B5555" transform="translate(0,0)"/>
<path d="" fill="#5F655A" transform="translate(0,0)"/>
<path d="" fill="#495255" transform="translate(0,0)"/>
<path d="" fill="#4A5458" transform="translate(0,0)"/>
<path d="" fill="#4B5657" transform="translate(0,0)"/>
<path d="" fill="#515958" transform="translate(0,0)"/>
<path d="" fill="#4A5657" transform="translate(0,0)"/>
<path d="" fill="#485458" transform="translate(0,0)"/>
<path d="" fill="#63CF9F" transform="translate(0,0)"/>
<path d="" fill="#525A59" transform="translate(0,0)"/>
<path d="" fill="#505A5C" transform="translate(0,0)"/>
<path d="" fill="#464D51" transform="translate(0,0)"/>
<path d="" fill="#495356" transform="translate(0,0)"/>
<path d="" fill="#35C9A4" transform="translate(0,0)"/>
<path d="" fill="#34C9A5" transform="translate(0,0)"/>
<path d="" fill="#35BDA6" transform="translate(0,0)"/>
<path d="" fill="#535D5A" transform="translate(0,0)"/>
<path d="" fill="#329CD2" transform="translate(0,0)"/>
<path d="" fill="#545D58" transform="translate(0,0)"/>
<path d="" fill="#585D59" transform="translate(0,0)"/>
<path d="" fill="#4B5654" transform="translate(0,0)"/>
<path d="" fill="#505E5C" transform="translate(0,0)"/>
<path d="" fill="#495657" transform="translate(0,0)"/>
<path d="" fill="#5B625A" transform="translate(0,0)"/>
<path d="" fill="#576159" transform="translate(0,0)"/>
<path d="" fill="#4F5C59" transform="translate(0,0)"/>
<path d="" fill="#515B5A" transform="translate(0,0)"/>
<path d="" fill="#4B5756" transform="translate(0,0)"/>
<path d="" fill="#63D0A0" transform="translate(0,0)"/>
<path d="" fill="#4E5A58" transform="translate(0,0)"/>
<path d="" fill="#505854" transform="translate(0,0)"/>
<path d="" fill="#64D29E" transform="translate(0,0)"/>
<path d="" fill="#4E5A56" transform="translate(0,0)"/>
<path d="" fill="#50595B" transform="translate(0,0)"/>
<path d="" fill="#505957" transform="translate(0,0)"/>
<path d="" fill="#505A57" transform="translate(0,0)"/>
<path d="" fill="#505B57" transform="translate(0,0)"/>
<path d="" fill="#555F59" transform="translate(0,0)"/>
<path d="" fill="#505A59" transform="translate(0,0)"/>
<path d="" fill="#4F5A58" transform="translate(0,0)"/>
<path d="" fill="#5F685A" transform="translate(0,0)"/>
<path d="" fill="#63695C" transform="translate(0,0)"/>
<path d="" fill="#5F655B" transform="translate(0,0)"/>
<path d="" fill="#586059" transform="translate(0,0)"/>
<path d="" fill="#56615B" transform="translate(0,0)"/>
<path d="" fill="#505C5A" transform="translate(0,0)"/>
<path d="" fill="#515B57" transform="translate(0,0)"/>
<path d="" fill="#4E5959" transform="translate(0,0)"/>
<path d="" fill="#667B6C" transform="translate(0,0)"/>
<path d="" fill="#57625A" transform="translate(0,0)"/>
<path d="" fill="#58615A" transform="translate(0,0)"/>
<path d="" fill="#576159" transform="translate(0,0)"/>
<path d="" fill="#545E59" transform="translate(0,0)"/>
<path d="" fill="#555D56" transform="translate(0,0)"/>
<path d="" fill="#515A5A" transform="translate(0,0)"/>
<path d="" fill="#525C5A" transform="translate(0,0)"/>
<path d="" fill="#535A54" transform="translate(0,0)"/>
<path d="" fill="#505C5B" transform="translate(0,0)"/>
<path d="" fill="#505B58" transform="translate(0,0)"/>
<path d="" fill="#33BFAC" transform="translate(0,0)"/>
<path d="" fill="#475152" transform="translate(0,0)"/>
<path d="" fill="#32C0AE" transform="translate(0,0)"/>
<path d="" fill="#525D5A" transform="translate(0,0)"/>
<path d="" fill="#475356" transform="translate(0,0)"/>
<path d="" fill="#545D5B" transform="translate(0,0)"/>
<path d="" fill="#515958" transform="translate(0,0)"/>
<path d="" fill="#545D58" transform="translate(0,0)"/>
<path d="" fill="#4D5A58" transform="translate(0,0)"/>
<path d="" fill="#4E5D5B" transform="translate(0,0)"/>
<path d="" fill="#6AA7CD" transform="translate(0,0)"/>
<path d="" fill="#66A7CC" transform="translate(0,0)"/>
<path d="" fill="#59625A" transform="translate(0,0)"/>
<path d="" fill="#5B635C" transform="translate(0,0)"/>
<path d="" fill="#5B625D" transform="translate(0,0)"/>
<path d="" fill="#5D675E" transform="translate(0,0)"/>
<path d="" fill="#6A6F5D" transform="translate(0,0)"/>
<path d="" fill="#676D5C" transform="translate(0,0)"/>
<path d="" fill="#55D7B0" transform="translate(0,0)"/>
<path d="" fill="#4DB1CD" transform="translate(0,0)"/>
<path d="" fill="#4FD8BD" transform="translate(0,0)"/>
<path d="" fill="#4CD0B4" transform="translate(0,0)"/>
</svg>
